<?xml version="1.0" standalone="no"?>
<!DOCTYPE svg PUBLIC "-//W3C//DTD SVG 20010904//EN"
 "http://www.w3.org/TR/2001/REC-SVG-20010904/DTD/svg10.dtd">
<svg version="1.0" xmlns="http://www.w3.org/2000/svg"
 width="500.000000pt" height="500.000000pt" viewBox="0 0 500.000000 500.000000"
 preserveAspectRatio="xMidYMid meet">
<metadata>
Created by potrace 1.14, written by Peter Selinger 2001-2017
</metadata>
<g transform="translate(0.000000,500.000000) scale(0.100000,-0.100000)"
fill="#000000" stroke="none">
<path d="M2125 4780 c-12 -12 -15 -12 -15 -1 0 11 -4 11 -17 -1 -10 -9 -28
-19 -40 -22 -13 -4 -23 -11 -23 -16 0 -5 -9 -12 -21 -15 -11 -4 -18 -9 -16
-12 3 -2 -6 -16 -20 -31 -14 -15 -40 -49 -58 -77 -44 -65 -76 -99 -84 -88 -3
4 -19 10 -36 11 -16 2 -31 8 -33 12 -2 5 -10 6 -18 3 -8 -3 -14 0 -14 5 0 6
-8 11 -17 11 -27 0 -114 26 -108 32 11 12 -119 -12 -133 -24 -13 -10 -14 -9
-7 3 8 13 7 13 -10 0 -11 -8 -31 -25 -44 -37 -14 -12 -29 -19 -34 -16 -6 3 -7
1 -3 -5 3 -6 2 -13 -4 -17 -15 -10 -60 -102 -53 -109 4 -3 0 -6 -7 -6 -7 0
-11 -3 -7 -6 7 -8 -13 -67 -27 -76 -7 -5 -6 -8 3 -8 11 0 11 -3 1 -15 -7 -9
-10 -18 -8 -21 3 -3 -3 -15 -14 -27 -18 -20 -27 -22 -94 -17 -41 3 -74 3 -74
0 0 -10 -65 -5 -72 5 -5 6 -8 6 -8 -1 0 -6 -12 -11 -26 -11 -15 0 -30 -7 -35
-14 -5 -8 -9 -10 -9 -5 0 5 -7 3 -15 -4 -8 -7 -15 -9 -15 -4 0 5 -5 1 -11 -9
-6 -9 -15 -15 -20 -11 -5 3 -8 2 -7 -3 2 -4 -6 -18 -17 -31 -60 -67 -57 -56
-59 -209 0 -62 -5 -113 -10 -113 -5 0 -4 -6 2 -13 7 -8 6 -19 -3 -37 -8 -14
-14 -22 -15 -18 0 4 -22 -1 -50 -12 -27 -11 -50 -18 -50 -15 0 2 -21 -5 -46
-15 -25 -11 -49 -18 -53 -15 -5 2 -17 -4 -28 -14 -10 -10 -29 -24 -42 -30 -12
-7 -21 -15 -18 -17 2 -3 -9 -19 -24 -35 -16 -17 -26 -35 -23 -40 3 -5 0 -9 -6
-9 -7 0 -10 -7 -6 -15 3 -8 1 -15 -4 -15 -5 0 -7 -32 -4 -72 6 -102 7 -107 18
-101 5 4 7 -1 3 -10 -4 -10 -2 -17 4 -17 6 0 9 -7 5 -15 -3 -8 0 -15 6 -15 6
0 9 -3 6 -6 -4 -3 0 -21 8 -40 8 -19 11 -34 8 -34 -4 0 -1 -6 5 -14 10 -11 6
-20 -16 -40 -15 -14 -31 -26 -35 -26 -4 0 -19 -11 -34 -25 -15 -14 -33 -25
-41 -25 -8 0 -11 -4 -8 -10 6 -9 -8 -14 -28 -11 -5 1 -7 -2 -5 -6 5 -10 -39
-53 -46 -45 -6 5 -10 -14 -7 -30 0 -5 -3 -8 -8 -8 -10 0 -26 -37 -30 -71 0 -5
-5 -8 -9 -5 -12 7 -6 -92 6 -107 7 -8 9 -17 5 -20 -3 -4 0 -13 7 -22 7 -8 9
-15 4 -15 -5 0 -4 -4 1 -8 15 -11 67 -82 60 -82 -3 0 6 -11 21 -25 15 -14 23
-25 18 -25 -5 0 -4 -4 2 -8 29 -20 63 -105 35 -87 -5 3 -12 -4 -16 -15 -3 -11
-11 -20 -17 -20 -6 0 -9 -3 -5 -6 6 -6 -1 -17 -35 -55 -10 -10 -18 -23 -18
-29 0 -5 -4 -10 -9 -10 -5 0 -14 -13 -21 -30 -7 -16 -16 -28 -20 -25 -4 3 -8
-5 -9 -18 -1 -38 -4 -57 -10 -57 -3 0 -7 -11 -7 -25 -1 -14 2 -22 8 -19 6 4 5
-4 -2 -16 -8 -15 -8 -20 -1 -16 7 5 11 -1 11 -14 0 -52 47 -111 145 -183 39
-28 73 -56 77 -62 4 -5 8 -6 8 -1 0 5 9 -3 21 -18 17 -21 18 -30 9 -41 -6 -8
-9 -19 -5 -25 3 -5 1 -10 -4 -10 -6 0 -10 -3 -9 -7 1 -9 -9 -40 -23 -67 -7
-12 -7 -16 0 -12 7 4 8 1 5 -8 -3 -9 -10 -16 -16 -16 -5 0 -7 -9 -3 -19 3 -11
1 -22 -5 -26 -12 -8 -10 -135 3 -135 4 0 7 -8 7 -18 0 -18 90 -132 90 -115 0
4 7 -1 16 -12 8 -11 17 -19 19 -17 5 2 7 2 23 -3 50 -14 62 -18 62 -26 0 -5 6
-6 13 -3 8 3 27 -1 43 -7 33 -14 53 -20 71 -21 7 -1 10 -5 7 -10 -3 -4 1 -8 8
-8 7 0 13 -11 13 -25 0 -14 -4 -25 -10 -25 -5 0 -3 -5 5 -10 13 -9 13 -10 0
-10 -13 0 -13 -1 0 -10 11 -7 11 -10 2 -10 -7 0 -10 -5 -6 -12 10 -15 11 -78
1 -78 -4 0 -3 -9 3 -20 8 -14 8 -20 0 -20 -7 0 -8 -5 -3 -12 4 -7 8 -20 8 -28
2 -31 33 -86 69 -122 46 -46 89 -68 145 -74 24 -2 47 -7 52 -10 5 -3 9 -1 9 4
0 5 17 6 40 2 22 -4 40 -4 40 0 0 4 18 4 40 0 27 -5 40 -4 40 4 0 6 7 3 14 -6
7 -10 16 -15 19 -11 4 3 7 -2 7 -13 0 -11 9 -43 19 -71 10 -29 16 -54 13 -57
-3 -3 0 -6 7 -6 7 0 10 -4 6 -9 -5 -9 13 -59 25 -71 3 -3 11 -17 19 -32 8 -15
18 -25 23 -22 4 3 8 -2 8 -11 0 -9 5 -13 10 -10 6 3 10 0 10 -8 0 -13 33 -31
53 -28 4 1 7 -4 7 -10 0 -6 7 -9 15 -6 8 4 17 2 20 -3 3 -5 13 -6 22 -3 11 5
14 3 8 -6 -6 -10 -3 -11 12 -2 14 7 23 7 31 -1 8 -8 12 -8 12 -2 0 6 6 11 13
12 61 6 80 10 86 18 3 5 17 11 31 12 14 2 30 8 36 13 6 5 14 6 17 2 4 -3 7 -2
7 4 0 6 10 10 23 9 12 -1 25 2 28 6 3 5 14 -1 25 -12 10 -11 27 -28 37 -38 9
-9 17 -21 17 -27 0 -6 11 -23 25 -38 14 -15 23 -27 20 -27 -3 0 11 -18 32 -41
34 -36 101 -76 143 -84 8 -2 15 -4 15 -5 0 -1 17 -3 37 -4 20 -1 35 1 33 5 -3
3 11 9 30 12 35 6 84 35 185 112 30 23 63 41 72 39 21 -3 82 -44 129 -86 10
-10 19 -16 19 -12 0 3 16 -7 36 -22 19 -15 43 -28 52 -29 10 0 24 -5 32 -10
20 -13 72 -14 87 -2 7 5 20 7 28 3 10 -3 13 -2 10 5 -4 6 -1 9 6 8 17 -4 99
48 99 62 0 5 4 8 9 4 5 -3 12 3 16 14 3 10 13 28 23 39 40 48 48 57 48 62 0 3
9 15 19 28 11 12 20 28 20 34 0 6 10 12 23 13 12 1 22 -3 22 -8 0 -6 3 -8 6
-4 3 3 28 -3 54 -13 26 -10 51 -16 54 -12 4 3 10 1 15 -6 4 -6 19 -13 34 -14
15 -1 27 -7 27 -12 0 -5 3 -6 7 -3 3 4 12 2 20 -4 9 -9 13 -8 13 0 0 6 5 11
11 11 5 0 7 -5 3 -12 -4 -6 -3 -8 4 -4 9 5 50 14 90 18 6 1 12 6 12 11 0 5 7
6 15 3 9 -3 18 1 21 9 3 8 14 17 23 20 38 12 122 169 105 196 -3 5 -1 9 3 9 7
0 37 80 38 102 0 14 15 21 15 7 0 -12 2 -12 9 0 6 10 26 14 67 12 31 -1 61 -4
65 -7 5 -3 9 -2 9 3 0 4 32 8 70 8 39 -1 70 2 70 6 0 4 10 9 23 12 32 9 98 76
123 125 15 30 20 60 20 107 -1 37 3 65 9 65 6 0 3 5 -5 10 -8 5 -10 10 -4 10
8 0 9 11 4 34 -4 19 -3 41 3 51 7 13 6 16 -3 10 -9 -6 -9 -3 0 14 11 21 23 29
52 35 7 2 20 6 28 9 66 25 134 45 141 42 4 -3 9 2 13 10 3 8 12 15 21 15 8 0
15 5 15 11 0 5 3 8 8 6 4 -2 17 7 29 20 12 13 20 23 17 23 -3 0 1 7 8 15 35
38 33 34 44 121 5 32 -4 86 -21 134 -1 3 -6 20 -10 38 -4 18 -12 35 -16 38 -5
3 -9 15 -9 28 0 12 -5 27 -11 33 -13 13 17 66 32 57 5 -3 9 0 9 5 0 6 5 11 10
11 6 0 21 11 34 25 13 13 26 22 29 19 3 -3 11 4 17 16 6 12 14 19 18 16 8 -8
94 83 87 93 -3 5 2 12 11 15 8 3 12 11 9 16 -4 6 -2 16 3 23 6 7 11 15 11 20
1 4 2 9 2 12 7 26 3 74 -8 90 -7 11 -13 27 -13 37 0 10 -5 18 -11 18 -5 0 -8
4 -5 9 4 5 3 11 -1 13 -5 1 -21 23 -38 48 -37 55 -54 77 -82 107 -12 13 -17
23 -11 23 5 0 8 6 5 14 -3 8 6 26 20 40 14 14 22 26 17 26 -5 0 -4 4 1 8 6 4
28 32 50 62 22 30 42 57 45 60 3 3 5 12 5 20 0 8 6 20 15 27 8 7 11 13 7 13
-4 0 -3 10 4 21 8 15 8 19 0 15 -6 -4 -11 -2 -11 3 0 6 3 11 8 11 4 0 7 11 7
24 0 13 -3 22 -7 19 -7 -4 -12 20 -9 41 1 4 -3 14 -9 20 -5 7 -7 16 -3 19 3 4
1 7 -5 7 -7 0 -12 5 -12 11 0 7 -20 32 -45 57 -25 24 -45 42 -45 38 0 -4 -12
5 -27 19 -15 14 -32 25 -38 25 -6 0 -17 9 -25 20 -8 11 -20 20 -28 20 -14 0
-34 42 -23 50 3 3 8 12 10 20 6 25 9 45 10 53 1 5 5 5 11 2 6 -3 7 1 4 10 -6
14 -2 28 22 90 17 45 11 137 -13 187 -13 26 -28 48 -35 48 -6 0 -9 3 -5 6 3 4
1 12 -6 19 -19 18 -97 66 -97 59 0 -3 -11 1 -25 10 -18 12 -25 13 -25 4 -1 -9
-4 -9 -13 2 -7 8 -21 16 -32 18 -11 2 -27 6 -35 9 -8 3 -24 8 -34 10 -11 2
-25 8 -32 14 -15 12 -23 89 -9 89 5 0 3 5 -5 10 -9 6 -11 10 -3 10 7 0 10 6 8
13 -10 30 -12 77 -4 77 6 0 7 5 4 10 -4 6 -8 26 -10 46 -2 19 -10 50 -19 69
-19 39 -93 115 -113 115 -7 0 -13 4 -13 8 0 10 -3 11 -115 17 -49 3 -100 7
-112 9 -13 2 -23 -1 -23 -6 0 -5 -9 -4 -20 2 -15 8 -20 8 -20 -2 -1 -8 -7 -5
-15 6 -11 15 -15 16 -16 5 -1 -13 -18 49 -21 79 -1 6 -6 12 -11 12 -6 0 -8 3
-5 6 8 8 -33 124 -57 160 -23 36 -45 58 -45 47 0 -4 -5 0 -11 10 -5 9 -16 17
-24 17 -7 0 -15 5 -17 12 -2 6 -11 12 -19 14 -7 1 -32 5 -54 9 -22 3 -46 8
-52 10 -7 2 -13 0 -13 -5 0 -5 -8 -9 -17 -8 -26 0 -77 -12 -83 -20 -5 -8 -24
-13 -52 -15 -10 -1 -18 -4 -18 -7 0 -4 -7 -7 -15 -8 -8 -1 -22 -3 -30 -4 -8
-1 -15 -5 -15 -9 0 -23 -44 13 -81 66 -24 33 -48 63 -53 67 -6 4 -8 8 -4 8 4
0 -4 12 -17 26 -14 15 -25 31 -25 36 0 5 -4 7 -9 4 -5 -3 -11 1 -15 9 -3 8
-12 15 -19 15 -8 0 -20 7 -27 15 -7 9 -15 13 -18 11 -2 -3 -19 1 -36 8 -58 24
-138 0 -241 -72 -44 -30 -83 -60 -87 -66 -4 -6 -12 -12 -18 -12 -5 -1 -11 -2
-12 -4 -12 -9 -39 -5 -49 6 -6 8 -18 14 -26 14 -8 0 -11 5 -8 10 3 6 1 10 -5
10 -7 0 -32 16 -56 36 -24 20 -44 33 -44 30 0 -4 -10 2 -22 14 -12 11 -24 20
-27 21 -3 0 -15 3 -26 6 -11 3 -30 6 -42 7 -11 0 -19 4 -17 7 8 13 -57 3 -71
-11z m65 -42 c0 -5 7 -7 16 -4 17 6 114 -41 114 -56 0 -4 6 -8 14 -8 8 0 21
-8 28 -19 7 -10 16 -19 20 -20 5 -1 21 -9 38 -19 24 -15 27 -21 17 -32 -10
-10 -9 -12 3 -6 8 4 6 1 -5 -8 -11 -8 -26 -20 -32 -26 -7 -6 -13 -8 -13 -5 0
6 -35 -22 -61 -49 -11 -11 -19 -17 -19 -13 0 4 -12 -3 -26 -16 -14 -12 -27
-21 -30 -19 -2 1 -13 -7 -25 -19 -25 -25 -40 -23 -164 21 -66 24 -130 43 -142
43 -17 0 -17 31 0 49 6 7 26 33 42 57 49 74 109 132 139 135 15 1 31 7 36 12
13 13 50 15 50 2z m633 -1 c16 9 47 11 42 3 -3 -4 9 -10 26 -14 32 -6 143
-111 134 -126 -3 -4 2 -10 10 -14 8 -3 15 -13 15 -21 0 -9 4 -14 9 -11 5 3 12
-6 15 -19 4 -14 10 -24 15 -21 4 3 8 -1 8 -9 0 -8 -6 -15 -14 -15 -7 0 -13 -4
-13 -10 0 -5 -6 -7 -14 -4 -8 3 -28 -1 -44 -10 -16 -8 -32 -12 -36 -9 -3 4 -6
1 -6 -6 0 -7 -5 -9 -10 -6 -6 4 -17 1 -25 -5 -8 -6 -19 -9 -25 -5 -5 3 -10 1
-10 -6 0 -7 -3 -10 -6 -7 -3 4 -20 0 -39 -8 -34 -14 -78 -11 -83 6 -2 5 -8 10
-13 10 -10 0 -24 10 -60 43 -10 9 -19 14 -19 10 0 -4 -7 2 -15 13 -8 10 -15
15 -15 11 0 -8 -15 3 -56 40 -13 12 -24 19 -24 16 0 -4 -5 -2 -12 5 -12 12
-12 12 51 65 12 9 26 17 31 17 6 0 13 7 16 15 4 8 12 15 20 15 8 0 14 4 14 8
0 12 51 36 72 35 10 0 15 3 13 8 -3 4 3 9 12 11 10 2 20 0 21 -4 2 -5 9 -5 15
-1z m-1210 -205 c6 -5 20 -8 30 -7 9 2 17 -1 17 -6 0 -5 3 -8 8 -8 4 1 9 0 12
-1 10 -3 45 -11 58 -12 6 -1 12 -5 12 -9 0 -4 7 -10 16 -13 9 -3 12 -2 8 5 -3
6 3 5 15 -3 28 -17 27 -21 -11 -59 -18 -18 -27 -29 -20 -25 7 4 -2 -12 -20
-37 -18 -24 -37 -42 -43 -39 -5 3 -7 2 -3 -3 10 -10 -52 -95 -69 -95 -7 0 -13
-6 -13 -12 0 -9 -4 -8 -10 2 -5 8 -10 11 -10 5 0 -11 -121 -12 -139 -1 -6 4
-11 2 -11 -4 0 -8 -6 -8 -20 0 -11 6 -20 7 -20 3 0 -4 -19 -8 -42 -7 -32 0
-42 4 -40 15 2 8 6 23 9 34 2 11 6 27 8 35 2 8 4 21 4 28 1 7 5 11 10 8 5 -4
8 2 6 11 -1 10 4 30 11 44 7 15 10 29 7 33 -4 3 -1 6 6 6 7 0 10 4 7 8 -6 11
57 82 73 82 6 0 11 4 11 8 0 5 7 9 15 10 8 1 22 3 30 4 8 1 15 4 15 7 0 10 69
4 83 -7z m920 -4 c18 -12 35 -27 39 -33 4 -5 8 -7 8 -3 0 7 33 -18 66 -50 8
-7 14 -11 14 -7 0 6 4 3 45 -33 20 -17 34 -48 16 -38 -5 3 -28 -1 -52 -10 -24
-9 -48 -17 -54 -18 -47 -12 -65 -19 -65 -25 0 -14 -85 -6 -98 9 -11 13 -12 13
-6 0 6 -12 4 -13 -7 -2 -7 6 -23 12 -36 12 -13 0 -23 5 -23 11 0 5 -5 7 -10 4
-6 -4 -18 -1 -27 7 -9 7 -18 12 -20 10 -7 -5 -53 10 -53 18 0 4 12 16 27 26
31 20 46 31 74 57 10 9 19 15 19 12 0 -6 9 1 49 35 18 15 53 38 59 39 2 1 18
-9 35 -21z m937 9 c0 -5 5 -5 10 -2 6 3 10 0 10 -7 0 -9 3 -9 10 2 6 10 10 11
10 3 0 -7 6 -13 14 -13 30 0 116 -107 99 -124 -4 -3 -1 -6 5 -6 7 0 11 -3 10
-7 -2 -10 13 -64 21 -78 6 -10 8 -18 14 -47 2 -10 6 -20 9 -24 20 -19 -7 -29
-75 -27 -39 1 -74 3 -77 4 -3 1 -9 1 -13 0 -4 -1 -37 -2 -73 -3 -59 -2 -67 1
-90 25 -14 15 -21 27 -17 27 4 0 0 5 -9 11 -10 5 -18 16 -18 24 0 7 -3 15 -7
17 -13 5 -63 76 -63 87 0 6 -7 11 -16 11 -8 0 -12 5 -9 10 3 6 1 10 -5 10 -6
0 -8 5 -5 10 3 6 1 10 -5 10 -14 0 -8 25 6 26 5 0 16 3 24 7 38 14 97 32 115
33 10 1 21 7 23 13 2 6 8 9 13 6 5 -4 15 -2 23 2 19 10 66 10 66 0z m-1552
-99 c6 -1 12 -6 12 -11 0 -6 3 -8 6 -4 4 3 22 0 40 -8 19 -8 34 -11 34 -7 0 3
5 1 12 -6 7 -7 22 -12 34 -12 13 0 26 -5 29 -10 4 -6 11 -8 16 -5 5 4 9 2 9
-4 0 -6 7 -8 15 -5 28 11 5 -25 -31 -47 -19 -11 -34 -25 -34 -30 0 -6 -4 -7
-10 -4 -5 3 -15 -3 -21 -14 -8 -11 -19 -17 -28 -13 -9 3 -13 1 -9 -3 5 -5 -6
-17 -23 -27 -23 -14 -52 -20 -108 -21 -42 0 -82 3 -89 7 -7 4 -12 4 -12 -1 0
-4 -13 -8 -29 -8 -16 -1 -27 3 -25 7 3 4 0 8 -5 8 -6 0 -3 8 7 18 32 34 53 63
64 88 6 13 15 24 20 24 4 0 8 7 8 16 0 8 5 12 10 9 6 -3 10 -1 10 4 0 6 0 13
0 16 1 2 11 16 23 30 15 17 28 23 42 19 11 -3 26 -6 33 -6z m1233 -12 c12 -13
21 -28 21 -33 1 -4 9 -14 19 -21 11 -7 19 -17 19 -22 0 -10 20 -38 52 -71 9
-9 14 -19 12 -22 -2 -2 2 -10 10 -16 24 -20 9 -37 -32 -33 -48 4 -125 2 -131
-3 -2 -2 -13 0 -24 6 -12 7 -17 7 -13 1 4 -6 -2 -8 -14 -5 -11 3 -20 8 -20 12
0 3 -12 12 -27 18 -16 7 -40 24 -55 38 -16 14 -28 23 -28 19 0 -4 -9 3 -20 16
-11 13 -20 20 -20 17 0 -4 -9 1 -19 10 -23 19 -18 38 9 41 44 4 50 6 50 14 0
5 4 7 9 4 5 -4 29 2 53 12 23 11 53 18 65 17 12 -1 20 2 17 6 -4 6 12 14 39
18 4 0 17 -10 28 -23z m-885 -102 c7 3 16 1 19 -4 4 -6 15 -10 26 -10 10 0 19
-4 19 -8 0 -4 10 -9 22 -9 13 -1 24 -7 26 -13 2 -5 9 -7 15 -4 7 4 3 -1 -7
-12 -11 -10 -30 -20 -43 -21 -45 -4 -53 -6 -53 -15 0 -5 -4 -6 -10 -3 -5 3
-10 1 -10 -6 0 -9 -3 -9 -14 0 -10 8 -16 9 -21 1 -3 -6 -11 -8 -16 -5 -5 4 -9
2 -9 -3 0 -13 -33 -10 -42 3 -5 6 -8 5 -8 -4 0 -11 -3 -11 -15 -1 -8 7 -15 8
-15 3 0 -13 -43 -11 -52 2 -5 6 -8 6 -8 -1 0 -6 -7 -11 -14 -11 -11 0 -13 5
-5 19 5 10 14 18 19 18 5 0 23 13 41 30 18 16 36 27 41 24 5 -3 7 -2 6 3 -2 4
0 8 3 8 4 0 17 9 30 20 14 13 20 15 15 5 -4 -10 -3 -10 5 1 11 15 14 15 27 2
8 -8 21 -12 28 -9z m567 -15 c10 -11 23 -19 28 -19 6 0 25 -15 42 -32 17 -18
27 -27 22 -19 -5 10 -4 12 3 7 7 -4 16 -16 22 -26 9 -16 7 -18 -10 -15 -11 2
-25 7 -30 10 -6 3 -10 2 -10 -3 0 -12 -43 -10 -52 3 -5 7 -8 7 -8 0 0 -5 -11
-10 -25 -10 -14 0 -25 3 -25 7 0 4 -7 4 -17 1 -10 -4 -14 -2 -10 4 4 6 -3 9
-17 8 -14 -2 -36 3 -50 11 -19 9 -25 10 -21 1 4 -7 1 -5 -7 3 -7 9 -21 14 -30
12 -10 -2 -18 2 -18 8 0 6 -4 8 -10 5 -5 -3 -10 -1 -10 4 0 6 5 12 10 12 20 3
25 4 38 12 6 5 17 5 24 1 7 -5 8 -3 3 6 -6 10 -3 12 13 8 12 -4 22 -3 22 1 0
12 63 29 85 24 11 -3 28 -14 38 -24z m-359 -71 c-6 -10 -4 -10 7 -2 16 12 22
11 67 -5 17 -7 32 -18 32 -23 0 -6 -6 -5 -15 2 -11 9 -15 9 -15 1 0 -9 -5 -9
-20 -1 -15 8 -20 8 -20 -1 0 -8 -4 -8 -15 1 -9 8 -15 8 -15 2 0 -6 -12 -9 -27
-7 -16 2 -32 4 -38 5 -5 0 -2 5 8 11 13 8 22 7 34 -3 12 -9 15 -9 9 0 -7 11
-1 32 10 32 3 0 2 -6 -2 -12z m-1414 -79 c0 -9 20 -6 38 4 6 5 12 4 12 0 0 -5
9 -9 20 -9 11 0 20 4 20 9 0 4 5 5 12 1 7 -5 27 -8 44 -7 30 0 32 -1 24 -23
-5 -13 -8 -24 -5 -24 2 0 -3 -17 -12 -37 -8 -21 -17 -49 -20 -63 -2 -13 -7
-27 -11 -30 -4 -3 -8 -14 -10 -25 -2 -11 -6 -27 -9 -35 -4 -8 -7 -18 -8 -22
-2 -5 -4 -10 -5 -13 -1 -3 -3 -11 -4 -17 -1 -7 -7 -12 -14 -10 -7 1 -12 -2
-12 -8 0 -5 -6 -7 -14 -4 -8 3 -17 1 -21 -5 -3 -6 -16 -11 -29 -11 -12 0 -26
-4 -31 -9 -9 -9 -53 -21 -82 -23 -7 -1 -13 -6 -13 -11 0 -5 -9 -7 -20 -4 -11
3 -20 1 -20 -5 0 -6 -9 -8 -20 -5 -11 3 -20 1 -20 -5 0 -5 -4 -7 -8 -4 -10 6
-9 67 2 84 4 7 3 12 -3 12 -7 0 -7 8 -1 24 5 15 5 27 -3 35 -6 6 -7 11 -1 11
5 0 10 9 10 20 0 11 -4 20 -9 20 -5 0 -4 7 3 15 6 8 9 19 5 25 -3 5 -1 10 6
10 7 0 10 3 6 6 -18 18 66 114 99 114 8 0 14 4 14 8 0 5 14 7 30 6 17 -1 30 1
30 5 0 4 7 8 15 8 8 0 15 -4 15 -8z m280 1 c0 13 2 13 9 1 8 -12 12 -12 25 -2
13 11 16 11 16 0 0 -11 2 -11 10 1 5 8 10 10 10 4 0 -12 29 -12 48 0 6 4 12 3
12 -2 0 -5 7 -9 15 -9 8 0 15 3 15 7 0 3 9 6 20 6 11 0 20 -3 20 -7 0 -9 20
-6 37 4 20 13 3 -29 -26 -60 -14 -16 -41 -52 -59 -80 -19 -30 -47 -57 -70 -69
-20 -10 -39 -21 -42 -24 -3 -3 -14 -5 -25 -4 -11 0 -25 -3 -30 -7 -6 -4 -24
-10 -40 -13 -15 -3 -31 -9 -34 -14 -6 -9 -38 -8 -47 0 -2 2 2 15 9 28 13 24
41 115 42 135 1 6 5 9 10 8 6 -1 11 11 12 25 2 45 9 67 21 67 6 0 14 3 18 8 4
4 11 2 16 -5 6 -10 8 -9 8 2z m357 1 c9 9 13 8 13 0 0 -7 5 -9 12 -5 16 10 48
13 48 4 0 -9 32 -6 48 4 7 4 12 2 12 -6 0 -9 3 -9 10 2 8 12 10 11 10 -7 0
-13 -8 -24 -20 -28 -11 -3 -20 -11 -20 -16 0 -6 -5 -7 -10 -4 -6 3 -13 -1 -16
-9 -3 -9 -12 -16 -20 -16 -8 0 -14 -4 -14 -8 0 -10 -65 -40 -95 -44 -11 -2
-23 -7 -26 -11 -3 -4 -19 -10 -34 -13 -16 -3 -34 -9 -41 -15 -19 -15 -25 3 -7
23 9 10 12 18 8 18 -4 0 4 11 19 25 14 13 26 29 26 35 0 5 4 10 8 10 5 0 14
11 20 25 6 14 19 25 27 25 10 0 13 5 9 13 -5 9 -4 9 6 0 10 -9 17 -10 27 -2z
m313 -14 c0 -13 -5 -17 -15 -13 -8 3 -15 1 -15 -5 0 -6 -4 -7 -10 -4 -5 3 -10
2 -10 -2 0 -5 -12 -10 -27 -11 -15 -1 -30 -8 -35 -15 -6 -9 -8 -9 -8 0 0 18
73 69 99 69 14 0 21 -7 21 -19z m25 13 c3 -5 1 -10 -4 -10 -6 0 -11 5 -11 10
0 6 2 10 4 10 3 0 8 -4 11 -10z m291 0 c19 4 37 4 40 -1 3 -5 14 -4 26 2 16 9
19 8 12 -3 -6 -11 -5 -11 9 1 13 10 17 10 17 1 0 -10 3 -10 15 0 9 7 15 8 15
2 0 -11 18 -11 38 1 7 5 12 3 12 -4 0 -8 4 -8 13 -1 8 7 18 7 27 2 9 -5 19 -5
27 2 8 6 13 6 13 1 0 -5 7 -10 15 -10 8 0 15 3 15 7 0 8 37 6 46 -3 4 -4 13
-2 21 4 7 6 13 7 13 3 0 -5 20 -9 45 -9 25 1 45 -3 45 -8 0 -4 9 -5 20 -2 11
3 20 2 20 -3 0 -9 72 -28 77 -20 1 1 9 -6 18 -17 9 -11 14 -14 10 -7 -7 14 11
17 20 2 4 -6 11 -8 16 -5 5 4 9 1 9 -5 0 -6 4 -9 9 -5 5 3 13 0 16 -6 4 -5 13
-8 21 -5 7 3 19 0 26 -7 7 -7 22 -13 33 -15 11 -2 27 -4 35 -6 9 -1 21 -5 28
-10 6 -4 20 -9 31 -11 26 -5 128 -54 144 -68 6 -7 46 -37 87 -66 41 -30 78
-59 82 -65 5 -7 8 -7 8 -1 0 6 3 6 8 0 4 -6 23 -22 42 -35 46 -32 58 -41 85
-66 13 -12 26 -20 28 -18 2 3 17 -12 33 -32 16 -21 37 -45 46 -55 9 -10 14
-20 10 -23 -3 -3 0 -6 6 -6 7 0 12 -7 12 -16 0 -8 5 -12 10 -9 6 3 10 0 10 -8
0 -8 7 -20 15 -27 8 -7 12 -16 9 -21 -3 -5 -1 -9 5 -9 9 0 75 -89 96 -131 5
-10 15 -19 22 -19 7 0 13 -4 13 -10 0 -5 13 -30 30 -56 16 -26 27 -51 24 -55
-3 -5 0 -9 6 -9 7 0 10 -7 6 -15 -3 -8 -2 -15 3 -15 4 0 8 -6 8 -12 1 -21 8
-43 15 -48 4 -4 9 -22 10 -42 2 -20 6 -34 11 -31 4 2 8 -2 8 -9 3 -27 4 -34
18 -57 7 -13 8 -20 2 -17 -5 4 -4 -6 4 -21 8 -15 15 -36 15 -45 0 -10 4 -18 9
-18 5 0 8 -13 7 -29 -1 -17 1 -28 6 -25 10 6 18 -29 21 -88 1 -27 7 -48 12
-48 6 0 3 -5 -5 -10 -12 -8 -12 -10 -1 -10 10 0 11 -3 2 -14 -9 -10 -9 -16 -1
-21 8 -5 8 -11 -1 -21 -9 -11 -9 -14 1 -14 10 0 10 -3 0 -15 -10 -12 -10 -15
1 -16 11 0 11 -2 1 -6 -10 -4 -10 -8 -1 -19 9 -11 9 -14 -1 -14 -10 0 -10 -3
0 -15 10 -12 10 -15 0 -15 -10 0 -10 -3 0 -15 7 -8 8 -15 3 -15 -5 0 -10 -7
-10 -15 0 -8 4 -15 9 -15 5 0 4 -9 -2 -19 -7 -14 -7 -22 0 -26 8 -5 7 -11 -1
-21 -9 -11 -9 -14 1 -14 10 0 10 -3 0 -15 -10 -12 -10 -15 1 -15 11 0 11 -2
-1 -10 -12 -8 -12 -10 -1 -10 10 0 11 -3 2 -14 -8 -10 -9 -16 -1 -21 6 -3 7
-12 3 -18 -8 -13 -11 -25 -16 -75 -2 -19 -8 -37 -13 -40 -9 -7 -15 -24 -17
-54 -1 -10 -4 -18 -7 -18 -6 0 -33 -86 -34 -110 0 -8 -4 -18 -8 -21 -5 -3 -10
-15 -13 -27 -2 -11 -9 -31 -15 -43 -10 -17 -10 -20 2 -13 11 6 11 5 -1 -9 -7
-9 -10 -17 -5 -17 5 0 3 -4 -4 -9 -7 -4 -14 -18 -15 -29 -1 -12 -5 -22 -10
-22 -4 0 -6 -4 -3 -8 7 -11 -69 -134 -77 -125 -4 3 -7 -1 -7 -10 0 -10 -5 -17
-11 -17 -5 0 -7 -5 -4 -10 3 -6 -1 -13 -9 -16 -9 -3 -16 -10 -16 -15 0 -5 -9
-19 -20 -31 -10 -13 -19 -27 -19 -31 0 -5 -9 -17 -20 -26 -12 -10 -21 -23 -21
-29 0 -6 -3 -12 -7 -14 -14 -6 -92 -116 -87 -122 2 -3 2 -4 -1 -2 -3 2 -16 -5
-28 -15 -12 -10 -38 -32 -57 -49 -19 -16 -41 -30 -47 -30 -7 0 -13 -3 -13 -7
-1 -5 -23 -24 -51 -43 -104 -73 -174 -125 -181 -135 -4 -5 -8 -6 -8 -2 0 5 -6
2 -14 -5 -18 -18 -55 -43 -64 -44 -15 -1 -98 -28 -107 -34 -5 -4 -18 -6 -27
-5 -10 2 -18 -1 -18 -5 0 -5 -16 -12 -35 -16 -19 -3 -35 -10 -35 -14 0 -5 -8
-7 -17 -5 -10 1 -22 0 -28 -4 -5 -3 -12 -6 -15 -7 -10 -2 -45 -16 -60 -23 -8
-4 -25 -7 -37 -6 -12 1 -24 -3 -26 -10 -4 -10 -23 -13 -102 -18 -16 -1 -33 -6
-37 -12 -5 -6 -8 -5 -8 3 0 9 -5 10 -18 3 -11 -6 -24 -6 -32 -1 -9 6 -17 5
-22 -3 -6 -9 -8 -9 -8 1 0 7 -5 10 -11 7 -17 -11 -59 -13 -65 -3 -3 4 -10 6
-15 2 -17 -10 -59 -12 -65 -2 -3 5 -12 4 -20 -3 -8 -7 -14 -7 -14 -1 0 12 -33
10 -42 -3 -5 -6 -8 -5 -8 3 0 9 -6 10 -17 5 -19 -9 -39 -8 -108 2 -65 10 -69
11 -100 24 -16 7 -38 14 -48 16 -9 2 -22 7 -27 10 -5 3 -18 8 -27 11 -10 2
-39 10 -65 16 -27 7 -48 16 -48 20 0 5 -10 8 -23 8 -12 0 -33 8 -46 17 -18 12
-22 13 -16 2 7 -11 6 -12 -6 -3 -8 6 -22 10 -31 9 -11 -2 -18 3 -18 13 0 15
-2 15 -10 2 -6 -10 -10 -11 -10 -2 0 6 -6 12 -13 12 -17 0 -147 88 -147 100 0
6 -6 10 -13 10 -7 0 -23 9 -35 20 -12 11 -26 20 -32 20 -5 0 -10 5 -10 10 0 6
-8 14 -18 17 -20 8 -86 55 -90 66 -2 4 -8 7 -13 7 -11 0 -40 24 -83 66 -40 41
-67 74 -60 74 4 0 1 7 -6 15 -7 8 -17 12 -24 8 -6 -3 -8 -3 -4 2 6 6 -22 57
-42 75 -3 3 -21 28 -39 55 -19 28 -37 52 -40 55 -4 3 -10 12 -16 21 -5 9 -25
38 -44 65 -19 26 -34 53 -34 61 0 7 -5 13 -10 13 -5 0 -6 7 -3 16 3 8 2 12 -4
9 -9 -5 -15 18 -7 28 1 2 -4 11 -12 20 -7 10 -10 17 -6 17 4 0 2 7 -5 15 -7 9
-10 18 -7 22 4 3 2 12 -4 20 -6 7 -8 13 -3 13 5 0 4 4 -3 8 -7 4 -13 24 -15
44 -1 20 -6 34 -10 32 -8 -5 -11 5 -11 39 0 9 -4 17 -8 17 -5 0 -9 8 -9 18 0
10 -5 23 -12 30 -7 7 -9 12 -5 12 4 0 0 16 -8 36 -8 20 -13 40 -10 44 3 5 1
11 -4 14 -5 4 -8 18 -5 31 2 14 0 25 -6 25 -7 0 -8 6 0 19 6 12 6 22 1 25 -5
3 -5 21 -1 41 4 19 4 37 -1 40 -4 3 -4 17 1 30 7 17 6 25 -1 25 -7 0 -6 6 2
17 12 15 12 16 -1 8 -13 -8 -13 -7 -1 8 7 9 9 17 4 17 -10 0 -10 41 1 58 4 7
2 12 -4 12 -6 0 -8 5 -3 13 11 18 12 37 2 37 -6 0 -6 7 0 18 5 10 6 24 1 32
-4 7 -6 23 -4 34 3 12 7 35 9 51 8 48 12 68 25 100 7 17 14 41 17 55 2 14 8
27 14 28 5 2 7 7 4 12 -3 5 0 21 7 37 6 15 12 35 12 43 0 8 4 17 8 20 4 3 10
17 12 30 2 14 5 26 7 28 1 1 2 5 4 10 1 4 4 14 8 22 3 8 13 39 22 68 9 29 23
59 31 67 8 8 13 16 12 18 -3 4 37 60 59 82 7 7 10 15 8 17 -3 3 6 15 20 28 14
13 25 29 25 36 0 7 4 14 8 16 4 2 23 24 42 51 18 26 38 47 43 47 6 0 8 3 4 6
-15 15 117 159 136 147 6 -3 7 -1 3 5 -4 7 -3 12 2 12 4 0 17 8 28 18 33 28
83 62 93 62 5 0 11 3 13 8 2 4 18 21 37 37 19 17 31 23 27 15 -6 -13 -5 -13 6
0 7 9 29 27 48 40 19 13 44 32 54 42 10 9 23 15 28 12 4 -3 8 2 8 11 0 9 4 14
8 11 5 -3 20 1 35 9 14 7 28 11 31 7 3 -3 6 0 6 6 0 6 7 9 15 6 8 -4 15 -1 15
6 0 6 5 8 10 5 6 -3 10 -2 10 3 0 6 9 8 20 5 12 -3 20 0 20 6 0 7 4 10 9 7 5
-4 22 -1 38 6 15 6 30 12 33 12 3 1 11 5 18 9 6 5 16 6 21 2 5 -3 13 0 16 6 4
5 13 8 21 5 8 -3 14 -1 14 4 0 6 9 10 19 10 11 0 22 4 25 9 4 5 14 8 24 7 9
-2 20 1 23 7 4 5 21 10 38 11 17 0 31 4 31 8 0 4 9 5 20 3 11 -2 22 1 26 6 4
7 10 7 16 1 5 -5 24 -6 44 -2z m695 2 c0 10 2 10 6 1 2 -7 11 -13 20 -13 18 0
43 -24 43 -42 0 -10 -3 -9 -10 2 -9 13 -10 13 -10 0 -1 -12 -4 -11 -15 4 -8
11 -18 17 -21 13 -4 -4 -13 -2 -20 3 -6 6 -22 13 -34 15 -13 2 -25 7 -29 11
-3 4 2 4 12 1 9 -4 17 -2 17 4 0 6 7 6 20 -1 15 -8 20 -8 21 2z m169 -6 c0 -5
7 -3 15 4 12 10 15 10 15 0 0 -10 3 -10 15 0 12 10 15 10 15 -1 0 -12 2 -12 9
0 7 11 9 11 13 0 4 -12 7 -12 21 0 10 7 17 9 17 3 0 -5 6 -10 13 -9 31 1 48
-4 43 -12 -3 -5 8 -24 24 -42 16 -19 30 -37 30 -41 0 -4 10 -16 22 -28 12 -11
18 -20 12 -20 -5 0 -2 -5 6 -10 12 -8 11 -10 -7 -10 -12 0 -24 4 -28 10 -3 5
-12 7 -20 3 -8 -3 -15 -1 -15 4 0 5 -6 10 -12 11 -47 6 -60 10 -70 20 -7 7
-18 12 -25 12 -8 0 -26 11 -41 25 -15 14 -31 25 -36 25 -5 0 -21 13 -37 29
-15 16 -31 26 -35 23 -4 -4 -5 -2 -2 3 7 12 58 13 58 1z m270 3 c0 -9 20 -6
38 4 7 5 12 3 12 -4 0 -8 4 -8 15 1 12 10 15 10 15 0 0 -10 3 -10 15 0 12 10
15 10 16 -1 0 -12 1 -12 6 0 5 11 7 11 14 0 6 -11 11 -11 20 -2 8 8 18 9 29 3
9 -5 22 -5 30 0 8 5 18 3 26 -5 16 -15 54 -115 57 -145 1 -11 4 -20 7 -20 3 0
7 -12 8 -27 1 -15 6 -29 10 -32 5 -3 11 -15 14 -26 4 -17 0 -21 -18 -21 -13 0
-24 4 -24 9 0 4 -4 5 -10 2 -5 -3 -10 -1 -10 5 0 7 -8 9 -21 5 -14 -5 -19 -4
-15 4 5 7 1 9 -8 5 -9 -3 -16 -1 -16 5 0 7 -6 11 -12 9 -23 -4 -93 25 -117 48
-13 13 -21 24 -17 24 4 0 -5 12 -19 27 -14 15 -25 31 -25 34 0 3 -13 21 -29
40 -22 25 -27 37 -19 46 8 11 7 12 -8 7 -13 -4 -15 -3 -6 3 15 12 42 13 42 2z
m336 2 c11 9 14 8 14 -2 0 -11 2 -11 10 1 5 8 10 10 10 5 0 -6 9 -11 20 -11
11 0 20 4 20 9 0 4 5 5 12 1 17 -10 68 -11 68 0 0 5 6 4 13 -1 6 -6 22 -9 35
-8 13 1 25 -2 28 -7 3 -4 10 -6 15 -3 5 4 9 1 9 -5 0 -6 5 -8 10 -5 6 3 10 2
10 -4 0 -5 9 -13 20 -16 11 -4 18 -11 15 -16 -4 -5 -1 -9 6 -9 7 0 9 -3 6 -7
-4 -3 1 -11 10 -18 16 -12 22 -28 26 -70 1 -11 7 -23 12 -27 6 -5 6 -8 -1 -8
-6 0 -11 -7 -11 -15 0 -8 4 -15 9 -15 5 0 6 -6 1 -12 -12 -20 -12 -38 -1 -38
6 0 5 -6 -2 -15 -10 -12 -10 -15 1 -16 10 0 11 -2 1 -6 -6 -2 -10 -9 -6 -14
14 -23 12 -50 -6 -59 -13 -7 -21 -7 -25 0 -4 6 -12 10 -18 8 -7 -1 -29 6 -50
15 -21 9 -41 16 -45 15 -4 -1 -17 3 -29 10 -13 7 -23 9 -23 5 0 -4 -5 -2 -11
4 -6 6 -18 9 -25 6 -8 -3 -14 0 -14 6 0 6 -9 11 -21 11 -22 0 -52 24 -42 34 6
5 -2 27 -28 78 -12 23 -11 31 1 23 5 -3 3 7 -5 22 -22 40 -39 86 -36 100 1 6
-3 14 -8 17 -5 3 -7 16 -3 28 3 13 7 17 10 10 3 -10 7 -10 18 -1z m-2241 -231
c-10 -11 -24 -20 -32 -20 -8 0 -11 -4 -8 -10 3 -5 -6 -12 -20 -16 -13 -3 -23
-9 -20 -13 2 -4 -9 -15 -25 -25 -28 -16 -29 -16 -23 1 10 29 63 73 94 80 16 3
32 10 35 14 3 5 8 9 11 9 3 0 -2 -9 -12 -20z m1910 0 c3 -5 11 -7 18 -5 7 3
28 -8 47 -25 19 -16 31 -30 25 -30 -5 0 -2 -5 8 -11 9 -5 17 -15 17 -22 0 -9
-2 -9 -8 0 -4 6 -14 13 -22 15 -7 2 -26 15 -41 30 -15 15 -30 24 -33 21 -3 -4
-6 -1 -6 6 0 7 -3 10 -7 8 -5 -3 -14 1 -21 9 -10 12 -10 14 2 14 8 0 17 -4 21
-10z m-2095 -81 c-6 -10 -15 -19 -20 -19 -6 0 -10 -7 -10 -15 0 -8 -4 -15 -10
-15 -5 0 -10 -5 -10 -11 0 -7 -10 -20 -22 -30 -11 -11 -18 -19 -14 -19 4 0 -6
-11 -22 -25 -17 -14 -33 -25 -37 -25 -3 0 -12 -6 -19 -12 -49 -48 -69 -60 -77
-47 -4 7 -4 20 1 30 5 9 6 19 3 23 -3 3 -1 6 5 6 7 0 12 9 12 19 0 11 5 23 11
27 8 4 7 9 -2 15 -11 7 -11 9 -1 9 7 0 10 5 7 10 -3 6 -1 10 4 10 6 0 10 3 10
8 -4 22 3 32 21 32 11 0 20 5 20 12 0 6 3 9 6 6 3 -4 21 0 40 8 19 8 35 14 36
13 2 0 10 2 18 5 37 11 45 13 53 9 4 -2 2 -13 -3 -24z m2321 10 c3 -5 17 -10
32 -11 15 -1 27 -6 27 -11 0 -4 5 -5 10 -2 6 3 10 2 10 -4 0 -6 7 -8 15 -4 19
7 44 -23 45 -54 0 -13 4 -23 8 -23 4 0 9 -8 10 -17 4 -39 9 -55 18 -61 5 -4
10 -17 11 -28 2 -17 -2 -21 -17 -17 -11 3 -20 9 -20 14 0 5 -6 8 -12 6 -7 -1
-12 4 -10 11 1 6 -4 12 -11 12 -7 0 -23 9 -35 20 -12 12 -22 18 -22 15 0 -3
-6 0 -14 7 -8 7 -12 16 -9 21 2 4 -4 7 -13 7 -10 0 -15 3 -11 6 5 5 -10 27
-40 59 -7 8 -13 16 -13 20 0 4 -7 13 -15 21 -8 9 -15 19 -15 23 0 10 63 1 71
-10z m-2574 -79 c1 -11 -3 -20 -8 -20 -6 0 -7 -4 -4 -10 3 -5 0 -10 -7 -10
-10 0 -10 -2 1 -9 9 -6 10 -11 2 -15 -6 -4 -11 -16 -11 -27 0 -10 -4 -19 -9
-19 -6 0 -8 -9 -6 -20 2 -11 -1 -20 -6 -20 -6 0 -8 -4 -4 -9 3 -5 1 -12 -5
-16 -6 -4 -8 -10 -5 -14 9 -16 -136 -139 -157 -133 -5 1 -8 -2 -8 -8 0 -5 -15
-17 -32 -26 -30 -16 -32 -16 -19 -1 11 14 11 17 0 17 -9 0 -10 3 -4 8 12 8 12
52 1 70 -4 6 -3 12 1 12 5 0 9 9 9 20 0 11 -4 20 -9 20 -6 0 -6 5 0 13 8 10
10 32 3 40 -6 8 -7 37 0 37 4 0 6 9 3 20 -4 16 3 23 33 36 39 16 66 24 97 28
10 1 22 7 25 12 4 5 14 11 22 12 8 2 24 6 35 9 11 2 26 5 33 5 6 1 12 5 12 10
0 18 16 7 17 -12z m2875 -25 c4 -5 10 -6 14 -2 4 4 13 2 20 -3 6 -6 16 -10 20
-9 19 3 35 -1 30 -9 -2 -4 6 -9 20 -10 46 -3 50 -5 61 -29 6 -12 7 -23 3 -23
-10 0 -8 -20 3 -37 5 -8 3 -13 -3 -13 -6 0 -9 -4 -5 -9 10 -17 13 -71 3 -77
-5 -3 -4 -12 3 -20 6 -8 7 -14 2 -14 -11 0 -11 -29 0 -47 4 -6 3 -14 -3 -18
-6 -4 -7 -11 -4 -17 4 -7 2 -8 -5 -4 -6 4 -8 13 -4 19 4 7 0 6 -10 -2 -15 -12
-17 -11 -17 3 0 10 -4 15 -9 11 -6 -3 -15 4 -21 15 -6 11 -15 18 -21 15 -5 -4
-9 -1 -9 4 0 6 -4 11 -10 11 -5 0 -20 9 -32 19 -13 11 -33 28 -45 38 -12 10
-23 27 -25 38 -2 11 -9 26 -16 33 -7 8 -10 18 -6 23 3 6 -2 21 -11 35 -9 14
-14 28 -11 31 3 4 1 12 -5 20 -6 7 -8 13 -4 13 4 0 1 8 -6 17 -12 15 -12 16 1
8 12 -7 13 -6 3 7 -7 8 -10 17 -8 20 7 7 98 -24 107 -37z m-3204 -86 c-7 -5
-8 -9 -3 -9 6 0 10 -16 10 -35 0 -19 -4 -35 -8 -35 -5 0 -6 -4 -3 -8 3 -5 6
-52 7 -104 1 -79 -2 -99 -17 -116 -9 -12 -21 -19 -26 -16 -4 3 -8 0 -8 -5 0
-6 -19 -23 -42 -37 -24 -15 -47 -33 -51 -40 -4 -8 -14 -14 -21 -14 -7 0 -21
-9 -31 -20 -10 -11 -21 -17 -25 -15 -4 3 -10 -2 -14 -10 -7 -19 -26 -19 -26 0
0 8 -4 15 -8 15 -5 0 -9 6 -10 13 -3 42 -7 57 -15 57 -5 0 -7 9 -4 20 3 11 1
18 -4 14 -5 -3 -10 2 -10 10 -3 29 -4 34 -11 41 -4 4 -4 13 -1 21 3 8 -1 14
-8 14 -11 0 -11 3 1 10 13 9 13 10 0 10 -13 0 -13 1 0 10 11 7 11 10 2 10 -9
0 -10 5 -3 18 5 9 10 19 10 22 11 41 15 50 24 50 6 0 8 3 4 6 -3 3 2 14 11 23
24 25 82 64 82 55 0 -3 7 -1 15 6 8 7 15 9 15 6 0 -4 6 -4 13 1 6 4 18 8 25 9
8 2 21 6 30 10 9 4 26 9 37 11 11 2 23 7 28 12 5 5 18 6 29 3 15 -4 17 -7 6
-13z m3589 -41 c9 -7 13 -7 13 1 0 26 121 -68 128 -99 2 -8 9 -18 15 -22 8 -5
7 -8 -3 -8 -10 0 -11 -3 -4 -8 11 -6 19 -39 14 -52 -1 -3 -3 -14 -5 -25 -7
-49 -15 -79 -24 -88 -5 -5 -7 -15 -5 -22 3 -7 1 -16 -5 -19 -6 -4 -8 -13 -4
-21 3 -8 0 -15 -7 -15 -7 0 -10 -8 -7 -20 6 -22 -23 -54 -30 -32 -3 6 -9 10
-14 6 -5 -3 -9 0 -9 6 0 6 -4 8 -10 5 -5 -3 -10 0 -11 7 0 7 -34 35 -75 62
-41 27 -74 53 -74 58 0 5 -4 7 -9 4 -25 -16 -57 79 -38 111 4 6 3 14 -2 18 -7
4 -7 15 -1 30 7 18 6 25 -3 26 -8 0 -8 2 2 6 11 5 11 7 0 14 -11 7 -11 9 -1 9
8 0 10 5 6 12 -10 16 -12 58 -2 58 4 0 3 11 -2 24 -6 17 -5 26 2 28 14 5 148
-39 165 -54z m-3217 -63 c0 -5 -25 -37 -48 -61 -7 -8 -10 -14 -6 -14 4 0 -2
-9 -14 -20 -12 -11 -24 -20 -27 -20 -3 0 -1 9 5 20 6 11 8 20 4 20 -3 0 -1 6
5 13 6 8 10 16 8 18 -1 2 -1 3 1 3 2 -1 15 9 29 22 24 22 43 31 43 19z m2718
-15 c12 -12 22 -17 23 -13 0 4 5 -3 11 -17 15 -32 19 -46 17 -56 0 -4 5 -10
11 -14 8 -5 8 -10 2 -14 -5 -3 -17 9 -26 27 -8 17 -16 25 -16 17 -1 -8 -8 2
-17 22 -8 21 -19 36 -23 33 -4 -3 -10 4 -13 15 -7 26 3 25 31 0z m-2868 -101
c0 -11 -4 -17 -10 -14 -5 3 -7 0 -4 -8 3 -8 1 -18 -4 -21 -6 -3 -8 -15 -5 -26
3 -12 0 -20 -6 -20 -7 0 -10 -4 -7 -8 3 -5 -4 -25 -14 -45 -11 -21 -17 -37
-13 -37 4 0 -2 -9 -13 -20 -31 -31 -44 -49 -44 -59 0 -6 -9 -15 -20 -21 -11
-6 -19 -14 -19 -18 3 -16 -2 -23 -11 -17 -7 4 -7 13 0 26 6 10 7 19 2 19 -4 0
-8 9 -8 20 0 11 4 20 9 20 5 0 4 6 -2 13 -6 8 -8 17 -4 21 11 11 12 36 1 36
-6 0 -4 7 3 17 12 14 12 15 1 9 -12 -7 -12 -4 -2 15 15 28 60 68 77 69 7 0 16
6 20 13 7 11 63 56 71 57 1 0 2 -9 2 -21z m3020 -11 c0 -5 5 -8 10 -8 6 0 23
-11 38 -25 15 -14 30 -25 34 -25 5 0 17 -9 28 -20 11 -11 18 -20 15 -20 -3 0
-1 -9 5 -20 7 -14 7 -20 0 -20 -12 0 -9 -22 5 -32 6 -5 6 -8 -1 -8 -6 0 -11
-7 -11 -15 0 -8 4 -15 9 -15 5 0 6 -6 1 -12 -10 -18 -13 -38 -4 -38 4 0 8 -7
8 -15 0 -33 -34 -8 -77 55 -13 19 -28 38 -33 41 -4 3 -9 15 -10 27 0 12 -7 24
-15 27 -7 3 -11 9 -8 14 4 5 2 20 -3 33 -13 32 -24 62 -25 68 -1 3 -4 10 -8
16 -4 6 -5 14 -2 17 7 7 44 -14 44 -25z m-3237 -177 c1 -23 -2 -41 -8 -41 -5
0 -3 -5 5 -10 11 -7 11 -10 2 -10 -7 0 -10 -5 -6 -12 10 -15 11 -78 1 -78 -4
0 -3 -9 3 -20 7 -14 7 -20 0 -20 -5 0 -10 -6 -10 -14 0 -7 -9 -25 -20 -38 -10
-14 -16 -28 -13 -32 3 -3 -2 -6 -12 -6 -10 0 -15 -3 -12 -7 4 -4 -5 -19 -20
-35 -15 -15 -24 -28 -20 -28 4 0 -3 -11 -15 -25 -22 -26 -35 -23 -43 11 -2 10
-17 58 -33 106 -17 47 -28 89 -24 92 3 3 1 6 -4 6 -21 0 -11 40 14 56 15 10
32 22 38 28 29 27 54 45 54 39 0 -4 12 5 28 18 15 14 39 30 55 37 15 6 27 17
27 23 0 32 12 -5 13 -40z m3455 19 c2 -5 10 -10 17 -10 8 0 19 -8 24 -17 6
-10 11 -14 11 -10 0 8 14 -2 55 -41 14 -13 25 -20 25 -17 0 4 15 -5 32 -20 36
-30 40 -47 21 -87 -8 -15 -13 -30 -13 -33 1 -29 -1 -35 -12 -29 -6 4 -8 3 -4
-4 3 -6 2 -13 -3 -16 -5 -3 -7 -15 -4 -26 3 -11 0 -20 -6 -20 -6 0 -10 -3 -10
-7 1 -5 0 -10 -1 -13 -3 -10 -11 -45 -12 -57 -2 -20 -13 -15 -34 13 -10 14
-25 32 -32 40 -7 8 -10 14 -6 14 4 0 -3 9 -16 20 -13 11 -19 20 -15 20 4 0 -2
8 -13 19 -12 10 -22 26 -22 35 0 9 -5 16 -11 16 -6 0 -9 9 -6 20 3 11 2 18 -3
15 -4 -3 -7 6 -6 20 0 14 4 25 7 25 4 0 3 18 -1 40 -4 22 -4 40 1 40 5 0 6 6
4 13 -3 6 -7 26 -9 44 -3 27 0 31 18 27 11 -2 22 -8 24 -14z m-133 -180 c-3
-5 -1 -10 4 -10 6 0 11 -7 11 -16 0 -8 4 -13 8 -10 4 2 12 -11 18 -29 6 -19 7
-32 2 -29 -4 3 -8 0 -8 -5 0 -6 4 -11 8 -11 4 0 8 -9 8 -20 0 -28 -3 -26 -26
20 -11 22 -18 40 -14 40 4 0 1 6 -5 13 -6 8 -8 17 -4 20 3 4 2 7 -3 7 -5 0
-10 9 -11 20 -1 11 3 20 8 20 6 0 7 -4 4 -10z m-3596 -25 c5 2 6 -7 3 -20 -2
-15 0 -25 7 -25 7 0 9 -5 6 -10 -4 -6 -1 -17 5 -25 7 -8 10 -24 7 -35 -3 -11
-1 -18 3 -15 4 3 13 -9 19 -25 5 -17 7 -30 4 -30 -3 0 0 -6 6 -14 9 -11 9 -15
-1 -19 -9 -4 -9 -6 2 -6 26 -2 22 -57 -6 -87 -13 -15 -22 -29 -20 -31 2 -3 -3
-13 -12 -23 -27 -30 -38 -45 -38 -50 1 -3 -11 -19 -26 -35 -16 -16 -28 -33
-28 -36 0 -3 -9 -16 -20 -29 -13 -15 -20 -18 -20 -9 0 8 -9 21 -20 29 -11 8
-20 20 -20 27 0 6 -8 17 -17 22 -10 6 -13 11 -8 11 6 0 6 3 -1 8 -15 10 -76
102 -68 102 3 0 2 6 -3 13 -13 15 -14 127 -2 127 5 0 9 7 9 16 0 22 63 82 150
143 58 40 76 49 78 37 2 -9 7 -14 11 -11z m373 19 c10 -9 -37 -117 -52 -122
-12 -4 -13 -2 -3 10 10 11 10 17 0 28 -10 10 -9 11 2 5 10 -6 12 -2 7 13 -4
13 -1 22 9 26 9 3 13 10 10 16 -3 5 -1 10 5 10 6 0 8 5 5 10 -6 10 8 14 17 4z
m3678 -46 c11 -10 22 -18 26 -18 3 0 27 -17 53 -39 55 -46 89 -104 87 -149 0
-17 3 -32 8 -32 5 0 3 -7 -4 -15 -7 -8 -9 -15 -5 -15 4 0 2 -7 -5 -15 -7 -8
-9 -15 -5 -15 5 0 0 -9 -10 -20 -10 -11 -15 -20 -12 -20 7 0 -14 -28 -45 -61
-9 -9 -14 -20 -11 -23 4 -3 0 -6 -7 -6 -7 0 -11 -3 -8 -6 3 -3 -7 -19 -24 -36
-29 -30 -30 -30 -44 -10 -8 12 -21 27 -29 35 -8 8 -11 17 -8 21 4 3 1 6 -5 6
-7 0 -12 5 -12 10 0 6 -8 19 -17 29 -32 35 -43 50 -43 58 0 4 -11 18 -24 30
-27 26 -28 62 -2 131 16 44 16 45 16 63 0 5 5 7 10 4 7 -4 9 3 6 19 -3 14 1
32 7 38 7 7 12 18 13 23 0 6 4 22 8 37 8 28 8 28 38 10 16 -9 38 -25 48 -34z
m-3775 -129 c0 -16 -3 -29 -8 -29 -4 0 -5 -5 -2 -11 9 -13 12 -79 5 -79 -3 0
-6 -8 -7 -17 -2 -32 -13 -77 -29 -118 -9 -22 -15 -41 -15 -42 6 -16 -2 -22
-12 -11 -17 16 -38 78 -32 88 3 5 0 10 -5 12 -6 2 -13 17 -16 33 -2 17 -6 35
-9 42 -2 6 6 22 19 36 12 13 20 30 18 37 -3 7 0 10 7 6 6 -4 11 -2 11 4 0 6
11 23 24 37 14 15 23 30 20 35 -3 4 3 5 12 1 13 -5 15 -3 9 8 -5 8 -4 11 1 6
4 -4 9 -21 9 -38z m3465 -17 c19 -26 39 -50 45 -54 5 -4 6 -8 1 -8 -5 0 0 -8
12 -18 17 -15 19 -21 9 -32 -9 -9 -9 -11 0 -6 6 3 14 2 18 -4 3 -5 -1 -10 -9
-10 -8 0 -15 -8 -15 -17 1 -29 -6 -50 -20 -67 -10 -12 -11 -16 -1 -16 9 0 9
-4 -1 -16 -8 -9 -14 -22 -14 -28 0 -18 -17 -22 -25 -6 -14 27 -33 98 -34 128
-1 17 -4 28 -8 26 -11 -7 -15 20 -7 49 4 15 5 27 1 27 -4 0 -7 24 -7 54 0 32
4 52 10 49 5 -2 26 -25 45 -51z m151 -202 c7 0 10 -3 6 -6 -6 -6 60 -95 76
-102 4 -2 5 -8 1 -13 -3 -5 -1 -9 3 -9 10 0 46 -58 49 -78 1 -7 -4 -16 -12
-19 -8 -3 -14 -12 -14 -20 0 -8 -4 -11 -10 -8 -5 3 -10 -1 -10 -9 0 -9 -5 -16
-11 -16 -5 0 -7 -4 -4 -10 3 -5 1 -10 -6 -10 -7 0 -10 -3 -6 -6 3 -3 -6 -17
-20 -30 -14 -13 -23 -24 -20 -24 6 0 -13 -26 -40 -55 -7 -7 -9 -15 -6 -19 4
-3 3 -6 0 -6 -9 0 -37 68 -37 90 0 10 -4 20 -10 22 -5 2 -11 18 -12 37 -1 18
-9 36 -16 39 -11 4 -11 6 0 13 7 5 8 9 3 9 -6 0 -12 14 -13 30 -1 17 2 30 7
30 6 0 8 9 6 20 -2 11 0 20 6 20 5 0 8 3 8 8 -1 4 0 9 1 12 3 10 11 45 12 58
1 6 4 12 8 12 4 0 7 6 7 13 1 42 25 73 35 46 4 -10 13 -19 19 -19z m-3787 18
c-3 -4 0 -8 5 -8 6 0 14 -18 17 -40 4 -22 11 -40 16 -40 6 0 8 -6 5 -14 -3 -7
1 -23 9 -35 8 -12 13 -25 9 -30 -3 -5 -1 -12 4 -15 12 -8 11 -58 -1 -73 -6 -7
-7 -13 -3 -13 4 0 2 -7 -5 -15 -7 -9 -10 -18 -6 -22 3 -3 0 -16 -7 -27 -8 -12
-17 -37 -21 -58 -3 -20 -13 -39 -22 -42 -8 -3 -12 -11 -8 -17 4 -8 3 -9 -4 -5
-7 4 -12 14 -12 22 0 8 -5 14 -11 14 -5 0 -8 4 -5 9 3 4 -3 16 -14 26 -11 10
-20 24 -20 32 0 7 -6 12 -12 10 -7 -1 -12 4 -11 11 2 6 -2 12 -7 12 -6 0 -10
6 -10 13 -1 6 -14 28 -30 47 -17 19 -30 37 -30 41 0 3 11 19 24 34 14 16 23
32 20 37 -3 4 -1 8 5 8 5 0 18 13 27 29 10 17 22 27 27 24 6 -3 7 -2 4 4 -4 5
2 19 12 30 10 11 21 29 25 40 3 11 13 20 21 20 8 0 12 -4 9 -9z m167 -145 c4
-55 3 -69 -5 -75 -12 -8 -17 -40 -5 -32 5 3 9 -2 9 -10 0 -9 0 -18 0 -21 0 -3
-2 -5 -5 -5 -3 0 -5 3 -4 6 0 4 -4 10 -10 14 -18 11 -16 78 2 108 5 6 5 17 2
22 -3 6 -1 10 4 10 6 0 12 -8 12 -17z m3433 -4 c-2 -4 0 -10 6 -14 6 -4 8 -10
5 -15 -3 -5 -1 -12 5 -15 8 -5 7 -12 -2 -23 -10 -12 -10 -14 -1 -8 9 5 11 2 7
-8 -3 -9 -9 -14 -14 -11 -4 2 -5 -6 -3 -18 3 -13 -2 -28 -9 -35 -11 -9 -14 -6
-15 11 -2 17 0 19 7 7 5 -8 10 -10 10 -4 0 6 -3 13 -6 17 -12 12 -9 124 3 124
7 0 10 -4 7 -8z m-3798 -129 c-4 8 -1 6 8 -5 8 -11 20 -25 26 -32 5 -7 10 -17
10 -23 0 -5 5 -10 12 -10 6 0 8 -3 5 -7 -4 -3 2 -13 13 -20 11 -8 18 -19 15
-24 -4 -5 1 -9 10 -9 11 0 15 -5 11 -15 -3 -9 0 -15 10 -15 8 0 13 -4 9 -9 -3
-6 3 -14 12 -20 10 -6 14 -11 8 -11 -5 0 -4 -4 4 -9 17 -11 24 -71 9 -71 -6 0
-9 -3 -5 -6 3 -3 -3 -29 -13 -58 -11 -28 -21 -60 -23 -71 -2 -11 -8 -29 -12
-40 -4 -11 -14 -35 -21 -52 -9 -23 -18 -31 -28 -27 -9 3 -16 10 -16 16 0 5 -4
6 -10 3 -5 -3 -10 1 -10 9 0 9 -7 16 -15 16 -8 0 -15 5 -15 12 0 6 -3 9 -6 5
-4 -3 -12 -1 -19 6 -6 7 -33 29 -59 51 -25 21 -46 45 -46 53 0 8 -4 12 -8 9
-5 -3 -9 0 -10 7 -3 41 -7 57 -13 57 -4 0 -6 11 -5 24 0 13 5 22 10 18 5 -3 7
2 3 10 -3 9 0 21 6 28 9 10 9 11 0 6 -8 -4 -8 0 0 19 7 14 16 25 20 25 5 0 5
5 2 10 -3 6 -2 10 2 10 5 0 17 15 28 33 10 17 27 39 37 48 10 9 18 21 18 28 0
6 5 11 10 11 6 0 9 3 9 8 -3 20 3 23 18 11 14 -12 16 -12 9 1z m4198 -40 c17
-25 33 -47 36 -50 18 -14 68 -98 63 -104 -4 -3 0 -6 8 -6 11 0 11 -2 -1 -10
-12 -8 -12 -10 5 -10 11 0 16 -4 10 -8 -12 -8 -15 -53 -3 -46 10 6 10 1 2 -20
-3 -9 -10 -14 -14 -11 -5 3 -7 -3 -6 -12 4 -21 -14 -63 -25 -63 -4 0 -11 -9
-14 -20 -4 -11 -11 -18 -16 -15 -5 4 -12 0 -15 -8 -3 -9 -19 -21 -35 -27 -16
-7 -27 -16 -24 -20 3 -4 -9 -13 -25 -20 -17 -7 -30 -16 -30 -20 0 -5 -13 -12
-28 -18 -24 -8 -28 -7 -30 9 -4 43 -6 49 -15 49 -5 0 -4 7 3 15 11 13 10 14
-3 9 -12 -4 -16 1 -15 26 1 18 -3 35 -8 38 -10 8 -16 28 -17 52 0 8 -4 17 -8
20 -14 10 -20 70 -8 92 7 12 22 33 35 47 13 14 24 29 24 33 0 3 6 13 13 20 22
24 68 88 63 88 -4 0 2 8 12 19 24 26 32 22 66 -29z m-3875 -28 c0 -19 4 -39
16 -64 4 -10 8 -29 9 -43 0 -14 4 -25 7 -25 4 0 9 -16 11 -35 2 -19 1 -35 -2
-35 -4 0 -6 -10 -4 -22 1 -13 3 -23 4 -23 1 0 3 -12 4 -27 1 -16 -3 -28 -9
-28 -5 0 -3 -5 5 -10 12 -8 10 -10 -8 -10 -13 0 -21 4 -17 10 3 5 -2 18 -12
28 -60 62 -108 142 -85 142 6 0 9 11 7 25 -1 14 2 25 7 25 5 0 6 5 3 10 -3 6
-1 10 6 10 7 0 10 3 6 6 -6 7 11 63 26 81 12 16 26 8 26 -15z m3547 -26 c2
-13 11 -40 19 -60 8 -20 13 -36 10 -36 -4 0 -3 -6 2 -12 12 -20 14 -50 3 -43
-5 3 -10 1 -10 -5 0 -12 -50 -83 -63 -88 -4 -2 -5 -7 -3 -10 2 -4 -8 -18 -21
-32 l-24 -25 2 37 c2 20 0 40 -3 43 -4 4 -3 18 2 31 5 13 6 24 1 24 -12 0 -9
33 4 42 6 5 5 8 -3 8 -10 0 -10 4 2 15 8 8 13 24 11 35 -2 11 0 20 6 20 5 0 8
3 7 8 -1 6 5 33 19 85 4 15 6 15 19 2 9 -8 17 -26 20 -39z m79 -214 c-3 -3
-11 0 -18 7 -9 10 -8 11 6 5 10 -3 15 -9 12 -12z m-3725 -3 c0 -5 5 -7 10 -4
6 3 10 0 10 -8 0 -8 7 -20 15 -27 9 -7 13 -15 10 -18 -3 -3 4 -11 15 -19 11
-8 20 -21 20 -29 0 -8 5 -12 10 -9 6 3 10 -3 10 -14 0 -12 4 -21 9 -21 5 0 17
-14 25 -32 18 -35 19 -41 9 -35 -5 3 -6 -39 -3 -94 3 -54 2 -99 -2 -99 -5 0
-8 -5 -8 -11 0 -5 5 -7 12 -3 7 4 8 3 4 -5 -8 -13 -7 -14 -77 42 -25 20 -49
37 -53 37 -6 0 -14 6 -49 35 -7 6 -23 18 -36 28 -26 17 -35 44 -22 62 4 5 14
31 21 58 7 26 16 47 20 47 3 0 6 10 5 23 -1 12 5 32 13 45 8 12 11 22 7 22 -4
0 -2 6 4 13 6 8 8 17 4 20 -3 4 -1 7 5 7 7 0 12 -5 12 -11z m3714 -5 c9 -3 14
-10 11 -14 -3 -5 4 -29 15 -55 11 -25 15 -43 10 -40 -6 3 -7 -1 -4 -9 3 -9 10
-13 15 -10 5 3 9 2 7 -3 -3 -11 13 -76 21 -88 10 -13 8 -25 -7 -53 -7 -12 -17
-20 -23 -17 -5 4 -9 1 -9 -4 0 -6 -6 -11 -14 -11 -8 0 -17 -7 -20 -16 -3 -8
-10 -12 -16 -9 -5 3 -10 -1 -10 -10 0 -9 -5 -13 -10 -10 -6 3 -13 -1 -16 -9
-3 -9 -10 -16 -16 -16 -5 0 -24 -10 -41 -22 -45 -32 -56 -32 -51 -1 3 15 7 30
10 35 3 4 2 8 -3 8 -4 0 -8 20 -8 45 0 25 4 45 9 45 6 0 5 5 -1 11 -8 8 -8 20
-3 35 7 17 6 24 -3 25 -9 0 -9 2 1 6 6 2 12 10 12 17 0 7 9 21 20 31 11 10 18
20 16 22 -2 3 3 13 12 22 28 29 56 66 54 69 -2 2 20 31 25 32 1 0 8 -3 17 -6z
m-3510 -105 c-3 -5 0 -9 6 -9 6 0 8 -4 5 -10 -3 -5 -2 -10 3 -10 5 0 9 -10 8
-22 -1 -13 4 -29 11 -36 7 -8 10 -18 7 -24 -8 -13 -43 25 -48 54 -3 13 -5 23
-6 23 -1 0 -3 8 -5 18 -2 9 1 17 7 17 6 0 4 8 -3 18 -13 15 -12 16 3 3 10 -7
15 -17 12 -22z m3307 14 c-11 -5 -11 -7 0 -14 11 -7 10 -9 -3 -9 -10 0 -18 -5
-18 -11 0 -5 4 -8 9 -5 5 3 11 -1 15 -9 3 -8 0 -15 -6 -15 -6 0 -9 -3 -5 -6 8
-9 -42 -74 -57 -73 -7 0 -6 2 2 6 6 2 12 13 12 22 0 10 3 21 7 25 4 4 9 19 11
33 4 36 20 63 35 62 8 0 7 -2 -2 -6z m5 -185 c4 -6 3 -8 -3 -5 -6 4 -10 -6 -9
-23 1 -17 5 -30 10 -30 5 0 3 -6 -3 -14 -8 -10 -9 -16 -1 -21 7 -4 7 -12 0
-25 -7 -13 -7 -21 0 -25 8 -5 7 -11 -1 -21 -9 -11 -8 -14 2 -14 8 0 4 -8 -9
-20 -12 -11 -24 -20 -28 -20 -3 0 -34 -22 -69 -50 -34 -27 -65 -47 -68 -43 -4
3 1 12 11 19 12 10 13 13 3 14 -11 0 -11 3 -1 15 7 8 9 15 5 15 -4 0 -2 6 4
13 6 8 8 17 4 20 -3 4 -1 7 5 7 6 0 9 9 7 19 -2 11 3 25 11 32 8 6 14 15 14
20 0 11 48 87 73 113 9 11 17 23 17 28 0 12 18 10 26 -4z m-3296 -8 c0 -10 8
-22 38 -55 6 -7 12 -18 12 -23 0 -6 4 -12 8 -14 16 -6 51 -88 45 -104 -4 -10
-2 -15 3 -11 5 3 14 -10 20 -29 7 -22 8 -34 1 -34 -6 0 -2 -10 9 -21 l19 -22
-32 17 c-18 9 -33 21 -33 26 0 6 -3 9 -7 8 -5 -2 -18 6 -31 17 -12 11 -26 20
-30 20 -4 0 -17 10 -29 23 -13 12 -20 22 -17 22 4 0 1 7 -6 15 -7 8 -9 15 -4
15 11 0 10 51 0 68 -4 7 -3 12 1 12 10 0 9 53 -2 69 -3 7 2 11 14 11 12 0 21
-5 21 -10z m3594 -35 c-4 -8 -1 -15 5 -15 8 0 22 -35 37 -95 1 -5 9 -29 17
-52 9 -22 14 -53 13 -67 -2 -14 1 -26 7 -26 6 0 2 -10 -9 -22 -10 -12 -13 -18
-6 -14 16 9 15 5 -3 -30 -16 -32 -63 -89 -73 -89 -4 -1 -17 -6 -28 -13 -12 -6
-24 -8 -28 -5 -3 3 -6 1 -6 -6 0 -7 -6 -11 -12 -9 -7 3 -24 -1 -37 -8 -14 -7
-28 -11 -33 -8 -4 3 -8 0 -8 -7 0 -7 -3 -9 -7 -6 -3 4 -17 0 -31 -9 -17 -11
-22 -12 -16 -3 6 11 5 12 -7 2 -12 -10 -17 -8 -27 8 -10 15 -10 19 0 19 9 0 8
3 -2 10 -9 6 -11 10 -3 10 7 0 10 6 8 13 -9 26 -13 77 -6 77 4 0 4 25 1 55 -3
31 -2 55 3 55 5 0 4 6 -2 14 -9 11 -8 18 4 30 12 12 13 16 3 17 -7 0 -3 5 10
11 12 6 22 15 22 20 0 4 7 8 15 8 8 0 15 3 15 8 0 4 18 18 40 32 22 13 40 28
40 32 0 4 7 8 15 8 9 0 18 7 21 15 4 8 10 13 14 10 4 -2 16 7 26 20 21 28 37
33 28 10z m-3884 -23 c19 -16 53 -40 75 -54 22 -14 52 -37 68 -52 15 -14 31
-25 35 -24 12 2 41 -67 30 -71 -6 -2 -4 -7 3 -12 11 -7 11 -9 1 -9 -7 0 -10
-5 -6 -11 10 -16 11 -139 1 -139 -4 0 -3 -9 3 -20 8 -15 8 -20 -1 -20 -8 0 -8
-4 1 -15 8 -9 9 -15 2 -15 -6 0 -9 -10 -7 -22 4 -20 3 -21 -8 -7 -7 9 -22 15
-35 14 -13 -1 -25 2 -28 6 -4 7 -77 31 -94 31 -15 0 -82 41 -105 64 -52 52
-73 152 -41 202 4 7 5 19 2 27 -3 8 -1 15 5 15 6 0 9 7 5 15 -3 9 0 15 8 15 8
0 14 6 13 13 -1 39 4 58 15 51 6 -4 8 -3 5 4 -8 11 1 42 12 42 3 0 22 -13 41
-28z m3575 -202 c-3 -5 0 -10 7 -10 8 0 9 -3 3 -8 -5 -4 -10 -14 -10 -22 0 -8
5 -18 10 -22 6 -5 4 -8 -4 -8 -11 0 -12 -3 -3 -12 7 -7 8 -17 1 -30 -7 -12 -6
-18 1 -18 7 0 8 -6 1 -18 -7 -13 -6 -23 1 -30 9 -9 9 -12 -2 -12 -11 0 -11 -3
-2 -12 8 -8 9 -15 1 -25 -9 -10 -8 -13 1 -13 10 0 10 -3 1 -14 -9 -11 -9 -15
1 -18 7 -3 -10 -12 -37 -22 -28 -10 -58 -22 -67 -27 -10 -5 -26 -9 -37 -9 -11
0 -27 -7 -35 -16 -10 -9 -16 -11 -16 -4 0 7 -14 4 -36 -9 -39 -23 -54 -21 -49
7 2 9 4 21 4 25 1 5 5 5 11 2 5 -3 7 0 5 7 -3 8 1 33 10 57 8 24 12 47 9 52
-3 5 -1 9 4 9 6 0 13 12 17 28 7 28 43 69 57 65 5 -2 8 1 8 6 0 5 9 13 20 16
11 4 18 11 15 16 -4 5 0 9 8 9 7 0 23 9 35 20 12 11 24 20 27 20 4 0 13 7 21
15 17 17 28 20 19 5z m-3277 -18 c2 -7 9 -12 16 -12 7 0 21 -8 32 -17 44 -41
92 -72 99 -65 5 4 5 1 1 -5 -4 -7 -3 -13 2 -13 10 0 38 -60 34 -72 -1 -5 2 -8
7 -8 5 0 8 -8 7 -17 -2 -10 1 -21 5 -24 5 -3 10 -17 11 -32 1 -15 5 -27 9 -27
12 0 18 -55 6 -62 -5 -3 -17 0 -24 8 -8 8 -18 12 -23 9 -5 -3 -11 -1 -15 5 -4
6 -11 8 -16 4 -5 -3 -16 0 -24 6 -8 7 -15 9 -15 5 0 -4 -7 -2 -15 5 -9 7 -18
10 -22 7 -3 -4 -13 -1 -21 5 -7 7 -22 13 -33 15 -10 1 -24 4 -31 5 -23 5 -44
73 -26 84 4 3 5 11 1 17 -11 17 -13 37 -4 37 4 0 8 7 8 15 0 8 -4 15 -9 15 -5
0 -6 6 -2 12 12 19 12 48 0 48 -6 0 -4 5 4 10 8 5 10 10 4 10 -8 0 -12 34 -5
47 4 6 36 -6 39 -15z m238 -66 c4 -12 15 -27 25 -34 23 -16 25 -32 3 -32 -8 0
-12 5 -9 10 3 6 0 10 -8 10 -7 0 -23 11 -35 25 -12 14 -19 25 -16 25 4 0 1 7
-6 15 -10 12 -10 15 0 15 9 0 7 7 -6 23 -10 12 -4 9 14 -7 17 -16 35 -39 38
-50z m2817 34 c-3 -11 -9 -17 -14 -14 -5 3 -6 -2 -3 -11 6 -16 -40 -68 -50
-57 -3 3 -6 0 -6 -6 0 -7 -5 -12 -10 -12 -6 0 -4 13 5 30 9 17 20 30 26 30 6
0 8 4 5 8 -3 5 4 14 14 22 10 8 17 17 14 22 -3 4 1 8 9 8 10 0 13 -7 10 -20z
m-2783 -162 c0 -5 8 -12 18 -15 9 -4 28 -17 41 -29 14 -13 28 -21 32 -18 4 2
10 -5 14 -16 3 -11 9 -19 13 -17 4 1 7 0 7 -3 1 -5 38 -50 63 -76 6 -7 12 -17
12 -23 0 -5 8 -15 18 -20 9 -6 13 -11 7 -11 -5 0 -4 -4 3 -9 8 -5 -1 -7 -24
-6 -21 2 -40 8 -42 14 -2 6 -14 11 -26 11 -13 0 -26 3 -30 8 -4 4 -11 7 -14 8
-33 4 -59 19 -69 39 -8 19 -8 23 0 18 7 -4 4 5 -6 20 -10 15 -19 41 -20 56 -1
16 -5 27 -9 24 -5 -2 -8 -1 -9 4 0 4 -2 17 -4 29 -3 13 1 21 10 21 8 0 15 -4
15 -9z m2723 6 c5 -6 -17 -82 -35 -117 -5 -10 -6 -22 -3 -27 4 -6 1 -10 -5
-10 -6 0 -9 -4 -6 -9 8 -13 -31 -44 -48 -38 -8 3 -20 -1 -26 -8 -7 -8 -16 -12
-21 -9 -5 3 -9 -1 -10 -8 0 -10 -2 -10 -6 -1 -3 10 -8 9 -20 -2 -8 -8 -19 -13
-24 -10 -5 4 -9 2 -9 -4 0 -5 -8 -8 -17 -6 -18 3 -19 27 -2 33 5 2 9 8 9 14 0
5 6 16 13 23 6 8 17 20 22 27 34 44 61 74 68 76 8 2 26 16 57 44 10 9 21 14
24 11 3 -3 8 2 12 11 6 16 16 20 27 10z m-2983 -148 c14 -5 28 -14 32 -20 6
-8 8 -8 8 1 0 8 9 7 30 -3 16 -9 39 -16 50 -17 11 -1 20 -5 20 -10 0 -5 6 -7
14 -4 7 3 22 0 32 -8 11 -7 24 -13 29 -14 30 -4 41 -15 53 -51 6 -22 12 -47
12 -55 0 -8 4 -15 8 -15 5 0 9 -6 10 -12 1 -19 9 -49 25 -95 9 -22 13 -44 10
-47 -4 -3 -1 -6 5 -6 6 0 9 -7 6 -15 -4 -8 -10 -12 -15 -9 -5 3 -9 0 -9 -7 0
-8 -5 -7 -17 2 -15 12 -16 12 -8 -1 7 -12 6 -13 -7 -3 -8 7 -17 10 -21 7 -9
-10 -57 -12 -63 -3 -3 5 -13 5 -23 -1 -10 -5 -21 -6 -25 -3 -4 4 -26 8 -49 10
-23 2 -43 8 -45 13 -2 6 -10 10 -17 10 -8 0 -19 8 -24 18 -6 9 -11 13 -11 8 0
-5 -12 8 -26 29 -14 21 -23 46 -21 57 3 10 1 21 -4 24 -5 3 -7 10 -4 15 4 5 2
9 -3 9 -5 0 -9 7 -9 15 0 8 3 15 7 15 4 0 7 7 7 15 0 8 -5 15 -11 15 -6 0 -4
5 4 10 12 8 12 10 1 10 -11 0 -11 3 -1 15 8 10 9 15 1 15 -7 0 -8 8 -1 24 5
15 5 27 -3 35 -8 8 -8 11 1 11 6 0 9 6 6 14 -6 15 4 16 46 2z m3266 -3 c-3 -7
0 -13 7 -13 7 0 8 -3 2 -8 -5 -4 -10 -18 -10 -32 0 -14 5 -28 10 -32 7 -5 6
-8 0 -8 -6 0 -11 -9 -11 -20 0 -11 4 -20 8 -20 5 0 4 -9 -2 -19 -7 -14 -7 -22
0 -26 7 -4 7 -11 2 -18 -5 -7 -8 -22 -7 -34 1 -13 -2 -23 -7 -23 -4 0 -8 -9
-8 -21 0 -11 -4 -17 -10 -14 -5 3 -10 -1 -10 -9 0 -18 -78 -78 -91 -70 -5 3
-9 1 -9 -4 0 -5 -13 -8 -29 -7 -16 1 -35 -1 -42 -6 -7 -4 -21 -3 -30 2 -11 6
-20 5 -24 -1 -4 -7 -13 -7 -26 0 -14 8 -19 7 -19 -1 0 -8 -5 -7 -17 2 -14 12
-16 12 -8 0 6 -11 5 -12 -6 -5 -21 13 -39 14 -39 1 0 -17 -10 -2 -15 22 -2 11
0 21 6 21 5 0 9 8 9 18 0 10 6 24 13 31 8 10 8 12 0 7 -7 -4 -6 4 3 23 15 29
25 63 26 89 1 6 4 12 8 12 4 0 7 6 8 13 3 37 12 53 42 76 19 14 30 19 25 11
-8 -13 -7 -13 8 -1 9 7 17 10 17 6 0 -4 7 -2 15 5 8 7 15 9 15 5 0 -4 6 -3 13
3 12 9 70 25 83 22 4 -1 10 3 13 9 4 6 19 12 34 13 15 1 27 5 27 9 0 3 7 6 15
6 9 0 14 -6 11 -14z m-2682 -95 c-3 -5 1 -8 9 -8 7 0 31 -16 53 -36 21 -20 32
-31 23 -25 -9 6 -19 8 -22 4 -4 -3 -7 2 -7 13 0 14 -2 16 -9 5 -6 -9 -11 -10
-15 -2 -4 6 -11 9 -15 7 -4 -3 -21 8 -36 24 -16 17 -25 30 -21 30 5 0 3 7 -4
15 -11 13 -7 12 18 -2 17 -10 28 -21 26 -25z m2091 15 c-29 -45 -67 -76 -77
-61 -6 10 -8 10 -8 -1 0 -8 -3 -11 -7 -8 -3 4 -12 2 -20 -4 -7 -6 -13 -8 -13
-4 0 9 43 44 55 45 6 0 25 14 44 30 42 37 48 38 26 3z m-2306 -40 c3 -4 17 -9
31 -11 13 -1 27 -6 30 -10 3 -4 19 -8 35 -10 17 -2 39 -11 49 -20 11 -9 16
-11 12 -4 -11 19 1 14 26 -10 36 -36 78 -95 71 -102 -4 -3 -1 -6 5 -6 14 0 52
-53 57 -80 3 -17 1 -19 -16 -10 -14 8 -19 7 -20 -2 0 -11 -2 -11 -6 0 -4 9 -8
10 -18 2 -9 -8 -15 -8 -20 0 -3 6 -13 7 -23 2 -20 -9 -43 -9 -57 0 -6 4 -17 3
-25 -2 -8 -5 -21 -5 -31 1 -11 5 -20 5 -23 0 -3 -5 -15 -7 -26 -4 -11 3 -18 9
-15 13 3 4 -2 13 -9 19 -8 7 -13 23 -11 37 1 13 -2 27 -6 30 -5 3 -14 14 -20
26 -8 16 -8 19 1 13 9 -5 8 -1 -1 16 -13 24 -19 43 -21 67 -1 6 -5 12 -9 12
-3 0 -9 11 -11 25 -5 22 -2 24 20 20 14 -2 28 -8 31 -12z m2535 2 c3 -9 0 -15
-10 -15 -8 0 -13 -4 -10 -9 3 -4 1 -23 -5 -42 -6 -19 -12 -45 -15 -59 -3 -13
-10 -28 -17 -32 -6 -4 -8 -10 -5 -14 4 -3 1 -19 -7 -34 -8 -15 -11 -30 -8 -34
4 -3 1 -6 -6 -6 -7 0 -10 -4 -7 -9 4 -5 -5 -8 -19 -6 -14 1 -25 -3 -25 -9 0
-7 -3 -7 -8 -1 -9 13 -42 15 -42 3 0 -6 -8 -4 -17 3 -15 12 -16 12 -8 -1 7
-12 6 -13 -6 -3 -9 7 -20 8 -28 4 -8 -5 -27 -5 -42 -1 -20 6 -29 5 -29 -3 0
-8 -3 -8 -8 -2 -4 6 -17 10 -29 9 -26 -1 -29 8 -8 29 8 8 11 17 8 21 -4 3 -1
6 5 6 7 0 12 5 12 11 0 7 10 21 23 33 13 12 21 28 19 35 -3 8 -1 11 4 8 5 -2
15 1 22 9 7 8 10 14 6 14 -3 0 -1 7 6 15 17 20 66 43 110 50 19 3 38 11 42 18
4 7 8 9 8 4 0 -4 15 -1 33 7 42 19 54 19 61 1z m-2224 -108 c0 -6 3 -7 6 -4 4
3 16 2 27 -4 14 -8 18 -8 13 0 -4 6 -2 11 3 11 6 0 11 -7 11 -16 0 -8 5 -12
10 -9 12 8 109 -38 138 -66 12 -10 28 -19 37 -19 8 0 15 -6 15 -14 0 -8 7 -17
16 -20 8 -3 12 -11 8 -17 -4 -8 -9 -7 -15 2 -7 11 -9 11 -9 1 0 -8 -5 -10 -12
-5 -20 12 -38 12 -38 1 0 -7 -5 -6 -14 1 -8 7 -17 8 -20 3 -6 -10 -50 -8 -83
5 -23 9 -134 153 -127 165 6 10 34 -2 34 -15z m1893 17 c3 -4 -8 -26 -26 -49
-18 -24 -39 -53 -47 -65 -24 -34 -50 -64 -50 -55 0 4 -7 2 -15 -5 -12 -10 -15
-10 -15 1 0 12 -2 12 -9 0 -6 -9 -11 -10 -15 -2 -4 6 -13 8 -19 4 -16 -10
-108 -10 -114 0 -6 10 26 47 39 47 6 0 19 10 30 23 11 12 17 15 13 7 -4 -10
-2 -9 8 2 16 21 98 59 109 52 4 -3 8 0 8 6 0 6 5 8 10 5 6 -3 10 -2 10 4 0 5
9 8 19 6 11 -2 25 3 32 11 12 15 22 18 32 8z m-1512 -135 c4 -6 11 -9 16 -6 5
3 21 0 36 -8 14 -7 28 -11 30 -9 2 3 10 -4 18 -13 13 -16 12 -17 -3 -4 -13 10
-18 10 -18 2 0 -8 -6 -7 -16 3 -20 20 -30 21 -14 1 11 -14 10 -14 -12 -6 -14
5 -29 7 -32 4 -3 -4 -6 -1 -6 6 0 7 -3 10 -7 8 -5 -2 -19 6 -33 20 l-25 24 29
-5 c16 -3 33 -11 37 -17z m1142 -1 c-27 -26 -93 -52 -93 -36 0 9 -3 8 -10 -2
-7 -12 -9 -11 -8 6 2 19 15 24 74 28 12 0 19 6 17 13 -3 7 4 11 16 10 20 -1
20 -2 4 -19z m-1703 -89 c0 5 18 5 40 1 22 -4 40 -4 40 0 0 4 18 4 40 0 22 -4
40 -4 40 -1 0 3 15 6 34 5 34 -2 86 -40 86 -63 0 -6 8 -15 18 -20 9 -6 14 -11
10 -11 -4 0 -1 -8 6 -17 43 -53 86 -114 86 -123 0 -6 5 -10 10 -10 22 0 8 -18
-22 -30 -18 -6 -41 -16 -52 -22 -14 -7 -16 -7 -10 4 6 10 5 11 -8 1 -8 -7 -18
-10 -21 -6 -4 3 -7 0 -7 -7 0 -7 -3 -10 -7 -7 -3 4 -12 2 -19 -4 -8 -6 -21 -9
-29 -5 -8 3 -15 2 -15 -3 0 -5 -16 -11 -35 -13 -19 -2 -35 0 -35 5 0 4 -4 5
-10 2 -5 -3 -10 0 -11 7 0 10 -2 10 -6 0 -3 -9 -12 -8 -36 5 -37 22 -87 69
-80 77 3 3 -1 8 -10 12 -9 3 -14 14 -12 25 2 10 -1 19 -6 19 -6 0 -8 4 -4 9 3
5 1 12 -5 16 -5 3 -10 20 -10 36 0 18 -4 28 -10 24 -6 -4 -10 6 -10 22 0 16
-5 34 -11 40 -13 13 -3 36 12 28 5 -4 9 -2 9 4 0 7 8 7 25 1 14 -5 25 -6 25
-1z m363 -4 c5 -7 10 -7 15 0 8 12 42 13 60 2 7 -5 12 -3 13 5 0 10 2 10 6 -1
5 -11 7 -11 14 0 6 10 9 10 9 2 0 -9 7 -10 24 -3 13 5 27 6 31 2 4 -4 10 -7
13 -7 14 -1 102 -57 102 -66 0 -5 6 -9 13 -9 7 0 19 -9 27 -19 7 -11 17 -18
22 -15 4 3 8 1 8 -5 0 -5 10 -13 22 -17 l21 -6 -24 -13 c-13 -7 -27 -11 -31
-9 -3 2 -9 0 -13 -6 -4 -6 -11 -8 -16 -5 -5 4 -9 2 -9 -2 0 -5 -9 -10 -20 -11
-44 -4 -50 -6 -50 -15 0 -6 -3 -8 -6 -5 -3 3 -28 -3 -57 -13 -28 -10 -52 -19
-53 -19 -7 0 -61 60 -57 64 3 3 -7 16 -22 30 -14 13 -26 27 -25 31 1 7 -51 77
-65 87 -5 4 -6 8 -1 8 5 0 4 6 -2 13 -8 10 -5 13 16 12 15 0 30 -4 35 -10z
m357 2 c0 -5 4 -6 9 -3 14 9 82 16 77 8 -2 -4 12 -8 31 -9 19 -1 40 -7 48 -13
10 -8 14 -8 17 1 3 8 8 8 19 -2 16 -16 36 -22 62 -21 9 0 17 -4 17 -9 0 -6 5
-7 12 -3 7 4 8 3 4 -5 -4 -6 -11 -9 -16 -6 -4 3 -10 0 -12 -5 -3 -11 -26 -18
-61 -19 -10 -1 -16 -5 -12 -10 3 -6 -4 -8 -15 -6 -11 2 -20 -1 -20 -7 0 -6 -3
-9 -6 -5 -3 3 -16 2 -28 -3 -25 -9 -42 -1 -98 42 -21 17 -38 26 -38 22 0 -5
-7 2 -16 14 -8 12 -21 22 -28 22 -7 0 -13 6 -13 13 0 7 14 12 34 12 18 0 33
-4 33 -8z m467 -4 c0 -7 -4 -10 -8 -7 -5 3 -21 -3 -36 -13 -21 -14 -25 -14
-18 -3 7 13 6 13 -7 2 -12 -9 -18 -10 -23 -2 -4 6 -13 9 -21 6 -8 -3 -14 1
-14 9 0 9 -6 12 -15 9 -8 -4 -15 -2 -15 2 0 5 35 9 78 9 55 0 79 -4 79 -12z
m239 7 c17 7 24 6 24 -3 0 -7 3 -8 8 -2 8 12 62 14 62 3 0 -4 11 -3 25 2 32
12 24 -12 -13 -36 -30 -19 -45 -31 -72 -56 -10 -9 -21 -14 -24 -10 -3 3 -6 0
-6 -7 0 -7 -4 -10 -9 -7 -5 4 -11 2 -13 -4 -2 -6 -16 -6 -40 1 -21 5 -40 9
-44 9 -3 -1 -12 7 -21 17 -8 10 -11 12 -7 4 6 -11 3 -13 -12 -6 -10 4 -29 10
-41 12 -15 4 -23 13 -23 25 0 15 5 19 20 15 11 -3 20 0 20 6 0 6 3 8 6 5 3 -4
20 -1 37 7 18 7 43 11 55 10 14 -1 26 5 30 14 3 9 7 11 10 3 2 -7 11 -8 28 -2z
m293 -4 c8 -5 12 -5 8 0 -4 8 173 7 181 -1 6 -5 -113 -173 -131 -186 -5 -3 -9
-10 -10 -15 -2 -24 -57 -46 -57 -23 0 7 -3 9 -7 6 -3 -4 -17 0 -31 9 -13 9
-21 11 -18 5 4 -6 -13 -2 -38 8 -24 11 -47 17 -50 14 -3 -4 -6 0 -6 8 0 11 -2
11 -10 -1 -7 -11 -10 -11 -10 -2 0 7 -4 11 -9 8 -5 -4 -11 -1 -13 4 -2 6 -13
12 -26 13 -12 0 -22 4 -22 8 0 9 66 59 78 59 6 0 13 7 16 16 4 9 9 14 12 11 3
-2 17 6 31 19 15 14 37 27 50 30 13 4 23 10 23 14 0 10 20 8 39 -4z m351 3 c0
8 47 6 78 -4 6 -2 12 -1 12 4 0 5 18 5 40 1 27 -5 40 -4 41 4 0 6 3 5 6 -3 4
-10 7 -10 13 -1 5 8 12 7 24 -6 14 -14 15 -19 4 -25 -7 -5 -10 -9 -6 -9 4 0
-1 -22 -12 -49 -10 -27 -16 -52 -13 -55 4 -3 2 -6 -3 -6 -5 0 -10 -9 -11 -21
-2 -25 -53 -113 -60 -105 -4 3 -12 -3 -20 -14 -8 -11 -21 -20 -29 -20 -8 0
-14 -4 -14 -8 0 -5 -10 -8 -22 -7 -13 1 -34 -1 -48 -5 -17 -4 -29 -2 -37 9 -9
12 -12 12 -13 3 0 -8 -5 -10 -12 -5 -23 14 -82 32 -90 27 -4 -3 -8 -1 -8 5 0
6 -7 8 -15 5 -8 -4 -15 -1 -15 5 0 6 -3 11 -7 10 -12 -2 -53 13 -53 18 0 8 74
108 82 111 5 2 8 13 8 25 0 18 2 19 10 7 8 -13 10 -13 10 1 0 9 7 22 15 29 8
7 12 16 9 21 -3 5 -1 9 5 9 6 0 17 12 25 28 8 15 15 24 16 20 0 -3 12 -3 28 1
15 5 35 4 45 -1 10 -5 17 -5 17 1z m-902 -107 c12 -7 22 -10 22 -6 0 4 10 -1
22 -12 12 -10 18 -13 14 -6 -10 16 10 15 26 -1 7 -8 20 -12 30 -9 10 2 18 -1
18 -7 0 -7 4 -10 8 -7 9 5 40 -11 32 -16 -3 -2 -26 -21 -52 -42 -27 -20 -48
-34 -48 -30 0 4 -6 1 -12 -7 -19 -22 -85 -69 -98 -69 -6 0 -9 -4 -6 -8 2 -4
-4 -9 -15 -9 -11 -1 -23 5 -26 13 -3 7 -9 11 -14 8 -5 -3 -9 2 -9 11 0 9 -4
14 -9 11 -4 -3 -16 3 -26 14 -10 11 -22 20 -27 20 -5 0 -14 5 -21 10 -7 6 -28
24 -47 40 -19 16 -38 30 -41 30 -3 0 -6 7 -6 15 0 8 2 13 4 11 3 -2 19 0 36 5
18 6 41 12 51 14 11 3 22 8 25 13 3 5 14 8 23 6 10 -1 20 2 24 7 3 5 9 7 14 4
5 -3 11 -1 14 3 8 13 67 8 94 -6z m-330 -99 c2 -7 10 -13 18 -13 8 0 14 -4 14
-10 0 -5 6 -10 14 -10 8 0 16 -4 18 -8 2 -5 27 -25 57 -45 29 -21 49 -37 45
-37 -5 0 6 -8 24 -16 17 -9 32 -20 32 -24 0 -5 -24 -25 -52 -46 -29 -21 -55
-42 -56 -46 -2 -5 -8 -6 -13 -2 -5 3 -9 1 -9 -5 0 -5 -9 -13 -20 -16 -12 -4
-17 -11 -14 -18 4 -7 4 -9 -1 -5 -4 4 -14 3 -22 -3 -7 -6 -13 -8 -13 -4 0 4
-7 2 -15 -5 -8 -6 -19 -9 -24 -6 -5 4 -12 2 -16 -3 -3 -6 -11 -8 -18 -6 -7 2
-32 9 -57 16 -33 8 -57 24 -92 62 -27 28 -48 56 -48 64 0 7 -7 13 -16 13 -8 0
-13 4 -10 9 3 4 -3 16 -14 26 -11 10 -17 22 -14 26 3 5 0 9 -5 9 -17 0 -13 37
4 44 8 3 15 0 15 -6 0 -7 5 -6 15 2 8 6 20 8 26 4 7 -4 9 -3 6 3 -6 10 114 50
141 47 6 -1 12 4 12 10 0 16 82 15 88 -1z m628 2 c20 -8 40 -12 45 -9 5 3 9 0
9 -7 0 -7 3 -10 6 -7 3 4 17 0 31 -7 14 -7 31 -11 38 -9 6 3 18 -2 25 -10 7
-9 16 -14 20 -11 4 3 22 -1 38 -8 l31 -13 -21 -32 c-11 -18 -24 -32 -30 -32
-5 0 -7 -4 -4 -8 7 -12 -103 -144 -113 -137 -5 3 -12 -2 -15 -11 -4 -9 -9 -14
-13 -11 -3 4 -13 1 -21 -6 -13 -10 -14 -9 -7 3 8 13 7 13 -10 0 -19 -16 -66
-20 -75 -8 -3 4 -15 9 -26 11 -26 3 -89 43 -122 76 -14 14 -27 24 -27 21 -1
-3 -15 6 -32 19 -30 24 -34 51 -8 51 7 0 15 7 19 15 3 8 11 15 18 15 7 0 28
14 46 31 17 16 32 27 32 24 0 -3 10 3 22 15 12 11 28 20 37 20 8 0 11 3 7 7
-7 8 31 32 52 33 7 0 29 -7 48 -15z"/>
<path d="M775 2551 c-3 -5 -2 -12 3 -15 5 -3 9 1 9 9 0 17 -3 19 -12 6z"/>
</g>
</svg>
